<svg width="256" height="256" viewBox="0 0 256 256" fill="none" xmlns="http://www.w3.org/2000/svg">
<circle cx="128" cy="128" r="128" fill="#D9D9D9"/>
<path d="M118.457 43.4748C104.821 45.425 93.5149 49.6287 82.3818 57.0393C64.8189 68.697 51.7871 86.9852 46.6088 107.397C45.4437 111.904 44.4944 118.188 44.9259 118.448C45.4437 118.795 45.6595 118.188 46.1773 114.938C47.8171 104.32 51.9165 93.5724 58.0009 83.6482C70.0835 64.0599 91.0121 49.672 113.667 45.3817C120.485 44.0815 133.819 43.7782 140.896 44.7316C163.421 47.8519 183.314 59.7262 197.252 78.3611C204.286 87.7652 210.241 101.46 212.269 112.944C213.175 118.058 213.434 118.838 213.995 118.448C214.34 118.231 213.305 111.601 212.355 107.83C209.507 96.8227 204.2 85.7284 197.727 77.061C194.577 72.8573 187.111 65.1 182.969 61.763C171.534 52.5323 158.027 46.4217 143.053 43.8649C137.573 42.9114 123.894 42.6948 118.457 43.4748Z" fill="#79321B" stroke="#79321B" stroke-width="2"/>
<path d="M138.7 52.7312C135.204 55.7519 133.22 58.1684 131.752 61.2753L130.113 64.7275L127.437 64.598C125.323 64.5117 124.546 64.6843 123.553 65.4179C121.137 67.2303 120.317 69.992 121.008 74.0051C121.31 75.688 121.266 75.7743 119.713 76.5942C117.814 77.6299 115.657 80.3916 115.657 81.8587C115.657 82.506 115.009 83.4985 113.887 84.5342C112.248 86.1308 112.161 86.3465 112.248 88.5473C112.334 90.1008 112.161 91.1796 111.687 91.9131C111.298 92.5173 110.867 93.5961 110.694 94.3296C110.176 96.8756 113.068 108.742 115.268 113.101C116.994 116.553 120.705 117.545 130.717 117.243C138.613 117.028 140.426 116.639 142.627 114.74C144.31 113.23 146.122 108.311 147.675 100.975C148.797 95.4947 148.754 94.5022 147.46 92.2152C146.683 90.748 146.553 90.1439 146.856 89.022C147.071 88.2884 147.114 86.9507 146.985 86.0876C146.64 84.4047 144.568 81.7724 143.231 81.3409C142.799 81.1683 142.411 80.78 142.411 80.4779C142.411 78.8381 140.987 76.4216 139.563 75.688C138.57 75.1271 138.182 74.6524 138.355 74.2209C139.563 71.2002 138.527 66.9713 136.197 65.5473C135.463 65.0727 134.083 64.7275 133.047 64.7275C130.803 64.7275 130.76 64.4254 132.486 61.0164C133.78 58.4704 135.981 55.795 138.225 54.0258C138.916 53.508 139.39 52.947 139.304 52.7312C139.218 52.4723 138.959 52.5155 138.7 52.7312ZM128.947 65.4179C129.508 65.5905 129.897 66.022 129.897 66.5398C129.897 67.2303 129.681 67.3597 128.818 67.2303C128.214 67.1008 127.739 67.144 127.739 67.3166C127.739 68.1796 130.932 68.4817 132.054 67.7481C132.572 67.4029 132.443 67.3166 131.537 67.3166C129.854 67.3166 130.415 65.7631 132.227 65.4179C135.593 64.7706 138.096 67.1871 138.096 71.1139C138.096 74.0914 137.448 75.386 135.55 75.9901C134.687 76.2922 133.09 77.0689 132.011 77.7593C129.724 79.1402 128.991 79.2265 126.402 78.3203C123.122 77.1552 121.266 74.6524 121.266 71.416C121.266 66.885 124.589 64.2528 128.947 65.4179ZM140.771 77.7162C141.289 78.3634 141.591 79.5717 141.591 80.9957C141.677 83.7574 140.512 85.4835 137.362 87.5116C132.572 90.5754 119.368 93.294 115.872 91.9563C115.225 91.6974 115.614 91.5248 117.296 91.309C121.612 90.748 129.724 87.2959 133.824 84.3184C136.715 82.204 138.096 80.0032 138.096 77.5004C138.096 75.4291 138.096 75.4291 139.045 76.0332C139.563 76.3785 140.34 77.1552 140.771 77.7162ZM123.424 77.4573L124.417 78.4929L122.302 79.4422C116.433 81.9882 115.916 82.0314 116.994 79.9601C117.685 78.6224 120.662 76.3785 121.698 76.3785C122.086 76.3785 122.863 76.8531 123.424 77.4573ZM137.362 78.0182C137.189 81.8587 131.235 86.3034 122.173 89.324C118.16 90.6617 114.492 91.0069 113.585 90.1008C113.283 89.7987 113.068 88.8494 113.068 87.9C113.068 85.2246 114.707 83.93 118.462 83.5848C122.475 83.2396 126.488 81.9451 129.681 80.0032C136.111 75.9901 137.492 75.6449 137.362 78.0182ZM128.602 79.8738C128.602 80.8231 117.253 83.7574 116.563 83.0238C116.433 82.8512 116.52 82.6355 116.735 82.5492C116.994 82.4629 119.023 81.5567 121.266 80.5642C124.934 78.9244 125.538 78.7518 127.006 79.1402C127.869 79.3991 128.602 79.7012 128.602 79.8738ZM145.345 84.1458C146.683 86.1308 146.64 88.8494 145.216 90.5323C144.051 91.9563 140.944 93.4235 138.311 93.855C136.37 94.157 136.326 94.2865 139.951 91.6111C142.497 89.7987 143.835 87.2096 143.619 84.5773C143.49 82.1177 143.878 81.9882 145.345 84.1458ZM143.274 84.9225C143.274 87.7706 140.469 91.0069 135.852 93.4235C133.435 94.718 132.313 95.0201 129.379 95.2358C125.236 95.5379 119.023 94.8043 116.649 93.7255L115.009 93.0351L119.972 92.733C130.458 92.172 139.477 88.5904 141.85 84.0163C142.368 83.0238 142.583 82.8512 142.886 83.3259C143.101 83.6711 143.274 84.3616 143.274 84.9225ZM147.33 93.294C148.409 95.9263 148.021 98.127 146.295 99.0332C144.482 99.9825 138.139 100.975 132.054 101.277C123.51 101.665 113.24 100.241 111.902 98.4722C111.126 97.5229 111.212 94.2865 112.032 92.6899L112.722 91.3953L113.974 92.6899C116.002 94.7612 118.548 95.4516 125.366 95.6674C133.694 95.9694 141.634 94.4159 144.655 91.9131C145.992 90.7912 146.381 91.0069 147.33 93.294ZM115.182 100.716C116.045 101.104 116.39 101.795 116.951 104.427C117.34 106.196 118.116 109.346 118.677 111.418C119.238 113.489 119.584 115.301 119.454 115.431C118.979 115.906 116.908 114.611 116.131 113.316C115.009 111.504 112.205 102.615 112.205 100.975C112.205 99.7668 112.334 99.6373 113.197 99.8962C113.715 100.069 114.621 100.414 115.182 100.716ZM147.158 100.069C147.158 100.932 145 108.699 144.137 110.986C143.231 113.403 141.246 115.647 139.994 115.647C139.218 115.647 139.218 115.345 140.081 113.014C140.642 111.375 142.152 105.592 143.015 101.795C143.188 101.018 143.662 100.544 144.655 100.241C146.51 99.6373 147.158 99.5942 147.158 100.069ZM121.568 101.665C122.647 101.881 122.647 101.924 123.424 109.346C123.683 111.936 124.028 114.611 124.158 115.301C124.373 116.423 124.287 116.51 123.122 116.51C122.432 116.51 121.525 116.251 121.137 115.949C120.403 115.388 116.735 102.054 117.167 101.407C117.383 101.061 119.152 101.148 121.568 101.665ZM142.152 102.572C141.807 104.6 138.657 115.647 138.355 115.949C138.268 116.078 137.362 116.251 136.37 116.38C134.73 116.596 134.557 116.553 134.773 115.819C135.118 114.697 136.326 105.937 136.456 103.564L136.585 101.622L138.527 101.363C142.583 100.802 142.497 100.802 142.152 102.572ZM129.034 109.39V116.941H127.092C125.452 116.941 125.15 116.812 124.934 115.949C124.546 114.266 123.424 104.859 123.424 103.305V101.838H126.229H129.034V109.39ZM135.679 104.945C135.42 108.354 134.255 116.078 133.91 116.596C133.824 116.812 132.874 116.941 131.795 116.941H129.897V109.39V101.838H132.917H135.938L135.679 104.945Z" fill="#79321B" stroke="#79321B" stroke-width="2"/>
<path d="M71.123 133.714C68.1455 135.095 58.7816 141.093 54.4232 144.416C51.7478 146.444 51.5752 146.487 47.0874 147.048C41.7797 147.696 40.14 148.645 45.1456 148.17C46.9148 148.041 48.7272 147.782 49.2019 147.696C49.7628 147.566 49.3313 148.084 48.1231 149.12C44.2825 152.356 42.7291 153.953 43.0311 154.255C43.2037 154.427 44.1962 153.78 45.1887 152.874C46.2244 151.924 48.1231 150.328 49.4608 149.335L51.9204 147.48L57.7891 147.609L63.6577 147.739L62.1043 149.896C60.2487 152.485 58.911 155.031 58.911 155.938C58.911 157.016 59.6446 156.671 59.9467 155.377C60.0761 154.729 61.2844 152.701 62.6221 150.802L65.0386 147.393L70.3894 147.696C73.7984 147.911 75.7403 147.868 75.7403 147.609C75.7403 147.35 73.8416 147.048 71.5545 146.876C69.2243 146.746 66.9804 146.574 66.5489 146.53C65.9448 146.444 66.3763 145.711 68.5339 142.992C73.9279 136.131 75.7403 133.671 75.7403 133.024C75.7403 132.075 74.0573 132.29 71.123 133.714ZM73.7121 134.879C73.0217 135.786 70.6483 138.806 68.4476 141.568L64.4776 146.66H58.7816C55.6746 146.66 53.3013 146.487 53.5602 146.315C56.3651 143.855 67.153 136.692 70.7778 134.836C74.6615 132.851 75.2656 132.851 73.7121 134.879Z" fill="#79321B" stroke="#79321B" stroke-width="2"/>
<path d="M96.5834 133.461C91.923 134.971 86.2701 138.682 84.5441 141.271C83.2495 143.299 84.242 142.825 86.8743 140.235C91.4484 135.791 98.3527 132.986 103.876 133.374C106.724 133.59 107.63 134.367 107.673 136.654C107.673 139.545 104.351 143.731 100.467 145.716C96.6697 147.701 90.5422 148.607 90.1107 147.269C90.0244 147.053 91.7936 144.896 94.0375 142.566C96.2814 140.192 98.0506 138.164 97.9643 138.078C97.5759 137.689 95.5046 139.459 92.3977 142.911C89.6791 145.888 88.9024 146.492 88.0825 146.363C86.8311 146.104 86.3133 146.795 87.0037 147.873C87.3921 148.521 87.1763 149.082 85.5366 151.412C83.1632 154.864 82.2139 156.719 82.2139 157.885C82.2139 158.661 83.0338 159.179 83.1201 158.402C83.2927 156.763 83.8536 155.511 85.9249 152.404C87.4784 150.16 88.6435 148.823 89.1182 148.823C89.5928 148.823 90.3696 149.643 91.06 150.851C92.5272 153.44 94.2101 155.252 95.5046 155.77C96.7561 156.245 99.7767 155.554 102.711 154.087C106.595 152.145 111.428 148.391 110.004 148.391C109.874 148.391 108.537 149.254 107.069 150.333C103.574 152.793 99.1726 154.864 97.1876 154.95C96.1519 154.993 95.2457 154.691 94.6848 154.174C93.6923 153.31 91.2758 149.772 91.2758 149.168C91.2758 148.995 91.923 148.823 92.6998 148.823C96.5403 148.823 101.934 146.363 105.171 143.17C108.795 139.588 109.615 135.575 107.199 133.547C106.034 132.554 105.516 132.425 102.797 132.425C100.769 132.468 98.6116 132.813 96.5834 133.461Z" fill="#79321B" stroke="#79321B" stroke-width="2"/>
<path d="M154.282 133.071C150.873 133.761 148.758 134.495 145.392 136.221C142.372 137.731 137.625 141.227 136.978 142.392C136.417 143.514 136.978 143.427 138.272 142.176C140.602 140.018 145.91 136.696 149.06 135.487C157.086 132.424 165.285 132.898 164.422 136.394C163.991 138.077 161.488 140.45 158.683 141.874C156.612 142.91 155.878 143.082 153.936 142.91C151.175 142.608 147.679 143.773 147.895 144.895C148.111 145.93 150.225 145.973 153.375 144.981C156.482 144.032 157.561 144.247 157.993 145.973C158.597 148.433 158.467 148.476 151.692 148.606C148.24 148.649 144.918 148.865 144.27 149.037C143.537 149.21 143.062 149.167 143.062 148.951C143.062 148.39 153.203 138.033 155.145 136.609C155.964 136.005 156.482 135.358 156.31 135.185C155.619 134.495 149.06 140.493 144.055 146.362C142.242 148.476 140.214 150.375 139.48 150.72C136.244 152.058 134.432 154.69 135.769 156.028C136.115 156.373 136.028 156.804 135.511 157.581C135.079 158.315 134.993 158.746 135.252 158.962C135.511 159.092 135.942 158.746 136.201 158.185C136.632 157.193 136.848 157.15 140.602 157.193C142.803 157.193 145.651 156.934 146.946 156.632C150.829 155.683 155.404 153.309 156.914 151.454C158.122 149.9 158.338 149.814 159.589 150.159C161.272 150.634 161.186 150.634 161.186 150.159C161.186 149.943 160.625 149.555 159.978 149.339C158.899 148.994 158.769 148.735 158.942 147.613C159.028 146.923 158.769 145.714 158.381 144.938C157.993 144.204 157.734 143.514 157.82 143.471C157.906 143.427 158.856 142.866 159.934 142.219C162.437 140.795 164.897 138.077 165.285 136.307C166.019 133.028 161.315 131.647 154.282 133.071ZM153.419 144.075C153.419 144.29 153.16 144.506 152.901 144.506C152.599 144.506 151.563 144.636 150.614 144.765C149.449 144.981 149.017 144.895 149.319 144.593C150.139 143.773 153.419 143.341 153.419 144.075ZM156.439 149.684C156.957 149.986 156.914 150.245 156.008 151.195C153.375 154.043 147.162 156.244 141.724 156.33C139.912 156.373 138.272 156.244 138.1 156.071C137.798 155.769 140.344 151.971 141.509 151.022C143.062 149.728 154.843 148.649 156.439 149.684ZM139.178 152.144C139.178 152.619 136.978 155.294 136.546 155.294C135.726 155.294 136.201 153.784 137.366 152.835C138.531 151.842 139.178 151.626 139.178 152.144Z" fill="#79321B" stroke="#79321B" stroke-width="2"/>
<path d="M181.894 133.067C181.549 133.498 180.556 133.714 178.874 133.714C176.328 133.714 174.99 134.016 174.99 134.534C174.99 134.707 176.155 134.75 177.579 134.663C180.341 134.448 180.729 134.793 179.262 136.131C177.967 137.296 170.027 147.436 166.92 151.838C164.461 155.419 164.331 155.506 162.131 155.937C160.879 156.153 159.887 156.541 159.973 156.8C160.059 157.016 160.189 157.189 160.318 157.146C160.448 157.102 161.268 156.973 162.174 156.8C163.555 156.541 163.77 156.585 163.77 157.275C163.814 158.052 163.814 158.052 164.374 157.318C164.806 156.757 165.583 156.585 167.611 156.585C169.078 156.585 170.243 156.412 170.243 156.153C170.243 155.765 168.949 155.549 166.705 155.592C166.273 155.592 165.928 155.463 165.928 155.29C165.928 154.729 171.279 147.264 175.249 142.301L179.219 137.339L185.433 136.389C194.581 135.009 197.127 134.793 196.954 135.354C196.868 135.656 193.588 139.669 189.662 144.286C182.93 152.269 179.305 157.275 179.305 158.656C179.305 159.648 180.298 158.958 180.643 157.706C181.074 156.153 184.311 151.924 191.258 143.812C194.365 140.23 197.299 136.648 197.817 135.915L198.767 134.577H203.254H207.742L206.706 136.131C205.326 138.116 205.369 138.633 206.793 139.712C207.397 140.23 207.828 140.661 207.742 140.748C207.656 140.791 206.448 141.395 205.11 142.129C197.17 146.185 192.898 152.917 196.48 155.721C198.119 157.059 202.305 156.757 205.628 155.074C208.26 153.78 212.877 150.586 213.783 149.508C214.992 148.04 213.783 148.343 211.798 149.982C207.095 153.823 203.039 155.721 199.586 155.721C197.084 155.721 196.134 154.945 196.134 152.96C196.134 149.162 202.909 143.294 209.9 141.007C213.783 139.755 214.215 139.194 211.022 139.54C208.821 139.798 208.26 139.712 207.354 138.979C206.361 138.159 206.361 138.116 207.052 136.994C207.44 136.389 208.433 135.57 209.166 135.181C210.504 134.491 210.59 134.491 211.281 135.397C212.273 136.605 212.705 136.562 212.359 135.224C212.144 134.404 212.273 134.146 212.748 134.146C213.093 134.146 213.654 134.62 213.913 135.224C214.517 136.562 215.294 136.648 214.862 135.311C214.301 133.369 214.129 133.326 206.836 133.541C201.615 133.671 199.759 133.585 199.543 133.196C199.284 132.808 199.025 132.851 198.378 133.412C197.947 133.8 196.911 134.146 196.091 134.146C195.271 134.146 192.596 134.448 190.179 134.793C186.209 135.354 185.648 135.354 185.044 134.793C184.699 134.448 184.009 134.146 183.534 134.146C182.93 134.146 182.757 133.93 182.887 133.498C183.232 132.635 182.541 132.29 181.894 133.067ZM184.052 135.397C184.052 135.742 180.988 136.346 180.643 136.044C180.6 136.001 180.643 135.742 180.815 135.483C181.161 134.922 184.052 134.836 184.052 135.397Z" fill="#79321B" stroke="#79321B" stroke-width="2"/>
<path d="M35.6079 133.325C31.5084 133.756 24.4315 135.137 22.4897 135.871C20.1163 136.777 21.7561 136.82 25.5535 135.957C35.8236 133.54 46.8274 133.368 48.2082 135.569C48.3808 135.827 48.6397 135.914 48.8124 135.741C49.5891 134.964 47.3452 133.67 44.6266 133.282C41.4765 132.807 40.6998 132.807 35.6079 133.325Z" fill="#79321B" stroke="#79321B" stroke-width="2"/>
<path d="M227.596 133.845C222.59 135.356 218.016 138.376 216.592 141.095C215.772 142.735 215.815 145.065 216.765 146.23C217.196 146.748 218.879 148.086 220.519 149.164C222.202 150.286 223.583 151.495 223.669 151.84C223.755 152.314 222.806 152.832 220.217 153.695C216.117 154.99 214.693 155.853 214.693 156.975C214.693 157.838 215.815 158.312 217.93 158.312C220.691 158.312 225.481 155.162 225.481 153.35C225.481 152.832 227.294 152.099 233.896 149.898C237.305 148.776 238.815 147.956 237.564 147.956C237.219 147.956 234.241 148.862 231.005 149.984L225.093 152.012L224.187 150.89C223.712 150.243 222.159 149.035 220.735 148.172C216.117 145.367 215.6 143.209 218.793 139.8C222.892 135.399 232.903 132.335 235.665 134.622C237.089 135.787 236.01 138.851 233.378 141.009C231.652 142.433 231.695 143.339 233.464 142.174C236.787 139.973 238.254 135.313 236.01 133.889C234.284 132.723 231.264 132.723 227.596 133.845ZM223.971 154.386C223.626 155.508 220.26 157.104 217.671 157.363C215.384 157.579 214.866 156.975 216.506 156.112C217.843 155.378 223.928 153.177 224.1 153.35C224.187 153.436 224.144 153.911 223.971 154.386Z" fill="#79321B" stroke="#79321B" stroke-width="2"/>
<path d="M29.7863 140.749C25.0828 145.712 24.9965 145.755 22.3211 146.316C20.8108 146.618 19.6457 147.049 19.732 147.308C19.8183 147.524 19.9909 147.697 20.1635 147.653C20.3361 147.567 21.2423 147.395 22.2348 147.265L24.0471 146.963L21.7169 149.984C18.9984 153.565 17.6175 155.982 18.0922 156.456C18.3079 156.629 18.5669 156.543 18.6532 156.241C19.1278 154.989 23.0978 149.38 24.5218 148.042C25.989 146.618 26.1616 146.575 30.3905 146.359C33.1953 146.186 34.6625 145.971 34.3604 145.668C34.1447 145.453 32.3755 145.323 30.4768 145.41C28.5349 145.496 26.9815 145.496 26.9815 145.323C26.9815 145.194 28.7507 143.209 30.9083 140.922C33.0659 138.635 34.7488 136.52 34.6625 136.261C34.5762 135.959 32.3755 138.031 29.7863 140.749Z" fill="#79321B" stroke="#79321B" stroke-width="2"/>
<path d="M34.9614 153.132C34.832 153.348 35.0046 153.564 35.3498 153.564C35.7382 153.564 36.0402 153.348 36.0402 153.132C36.0402 152.874 35.8676 152.701 35.6519 152.701C35.393 152.701 35.0909 152.874 34.9614 153.132Z" fill="#79321B" stroke="#79321B" stroke-width="2"/>
<path d="M72.939 153.132C72.8095 153.348 72.9821 153.564 73.3273 153.564C73.7157 153.564 74.0178 153.348 74.0178 153.132C74.0178 152.874 73.8452 152.701 73.6294 152.701C73.3705 152.701 73.0684 152.874 72.939 153.132Z" fill="#79321B" stroke="#79321B" stroke-width="2"/>
<path d="M52.2173 164.839C52.2173 165.832 55.5831 171.83 58.7332 176.49C67.4931 189.436 78.2379 198.67 92.5643 205.704C104.906 211.745 117.722 214.377 132.264 213.903C145.641 213.471 156.127 210.839 168.08 204.884C180.939 198.411 192.979 187.537 201.178 174.98C204.241 170.276 206.96 164.969 206.485 164.494C206.14 164.149 206.183 164.062 203.206 169.37C192.979 187.451 177.703 200.612 158.587 207.775C149.223 211.271 140.463 212.781 129.459 212.781C116.686 212.781 107.107 210.882 96.5774 206.308C78.1516 198.282 63.6957 184.948 54.5475 167.515C53.0803 164.666 52.2173 163.717 52.2173 164.839Z" fill="#79321B" stroke="#79321B" stroke-width="2"/>
<path d="M134.902 173.386C134.384 173.99 134.212 174.81 134.255 176.105C134.298 177.14 134.125 178.435 133.866 178.953C133.219 180.161 133.219 181.801 133.866 182.448C134.557 183.138 136.067 183.095 136.714 182.448C137.146 182.016 137.448 182.016 138.138 182.448C139.26 183.182 139.821 182.707 138.742 181.93C138.052 181.455 138.052 181.197 138.44 179.945C139.045 178.219 139.045 178.219 138.57 178.219C138.354 178.219 138.052 178.694 137.923 179.298C137.577 180.679 137.146 180.679 136.24 179.168C135.549 177.96 135.549 177.874 136.628 176.45C137.923 174.681 137.879 172.868 136.542 172.696C136.067 172.609 135.333 172.955 134.902 173.386ZM136.801 174.249C136.801 174.637 136.412 175.457 135.938 176.061C135.161 177.054 135.075 177.097 135.031 176.277C134.945 174.983 135.118 174.163 135.592 173.602C136.153 172.911 136.801 173.3 136.801 174.249ZM136.067 180.333C136.714 181.455 136.714 181.628 136.11 181.844C134.729 182.362 134.212 182.103 134.212 180.894C134.212 178.737 134.988 178.521 136.067 180.333Z" fill="#79321B" stroke="#79321B" stroke-width="2"/>
<path d="M84.5865 173.257C84.2413 173.343 83.1625 173.559 82.2132 173.688C80.6165 173.947 80.5734 174.033 81.307 174.594C81.9974 175.069 82.0837 175.544 81.868 177.658C81.7385 179.039 81.7816 180.851 81.9543 181.671L82.2995 183.182L82.6447 180.938L82.9467 178.737L84.9749 178.435C88.2544 178.003 88.7291 177.227 85.579 177.529L82.8604 177.788V176.105V174.422L85.7516 174.12C87.6503 173.904 88.3839 173.688 87.9955 173.429C87.3914 173.084 85.9242 172.998 84.5865 173.257Z" fill="#79321B" stroke="#79321B" stroke-width="2"/>
<path d="M96.4543 173.553C96.368 173.855 96.1954 175.064 96.1091 176.186C95.9797 177.653 95.505 178.732 94.642 179.854C92.1823 182.917 91.1035 181.882 91.0172 176.358C90.9741 173.294 90.9741 173.251 90.5425 175.193C90.0679 177.437 90.3699 181.062 91.1035 181.925C92.0097 183.004 93.52 182.615 94.9009 180.932L96.2386 179.293V180.889C96.2386 181.752 96.4543 182.615 96.6701 182.745C96.929 182.917 97.1016 181.234 97.1016 178.041C97.1016 173.467 96.929 172.173 96.4543 173.553Z" fill="#79321B" stroke="#79321B" stroke-width="2"/>
<path d="M100.984 173.426C99.9479 173.728 99.9048 173.815 99.9048 177.785C99.9048 181.755 99.9479 181.884 101.07 182.488C102.149 183.092 102.321 183.092 103.4 182.273C105.212 180.935 106.205 179.381 106.464 177.483C106.636 176.102 106.507 175.584 105.687 174.635C104.565 173.383 102.71 172.909 100.984 173.426ZM104.263 174.678C104.522 174.85 104.954 175.368 105.169 175.843C106.162 177.785 103.788 181.668 101.631 181.668C100.552 181.668 100.552 181.625 100.552 178V174.333H102.192C103.055 174.333 104.004 174.505 104.263 174.678Z" fill="#79321B" stroke="#79321B" stroke-width="2"/>
<path d="M111.384 173.601C110.823 173.86 109.96 174.637 109.485 175.284C108.363 176.794 108.018 180.678 108.838 181.843C109.614 182.836 111.513 182.879 112.592 181.929C113.541 181.066 113.929 181.066 113.929 181.886C113.929 182.231 114.145 182.534 114.361 182.534C114.62 182.534 114.793 181.368 114.793 179.858C114.793 177.096 114.49 176.881 113.714 179.211C113.153 180.937 111.254 182.102 110.175 181.412C109.614 181.023 109.399 180.376 109.485 178.909C109.571 176.492 110.909 174.378 112.678 174.033C113.369 173.903 113.929 173.644 113.929 173.428C113.929 172.867 112.592 172.954 111.384 173.601Z" fill="#79321B" stroke="#79321B" stroke-width="2"/>
<path d="M118.721 173.558C117.685 173.773 117.038 174.119 117.21 174.334C117.728 174.766 123.899 173.903 123.597 173.428C123.295 172.953 121.18 172.997 118.721 173.558Z" fill="#79321B" stroke="#79321B" stroke-width="2"/>
<path d="M150.997 173.686C149.746 174.377 149.314 175.758 149.314 179.253C149.314 183.137 150.048 182.835 150.307 178.821C150.566 174.679 151.127 173.729 153.198 173.988C154.061 174.075 154.277 174.334 154.277 175.412C154.277 176.491 154.018 176.836 152.465 177.57C150.35 178.562 150.134 179.08 151.817 179.08C152.68 179.08 153.198 179.426 153.716 180.289C154.536 181.669 156.219 183.266 156.219 182.705C156.219 182.446 155.615 181.454 154.881 180.418L153.5 178.606L154.493 177.57C155.571 176.448 155.744 174.679 154.924 173.686C154.234 172.866 152.465 172.866 150.997 173.686Z" fill="#79321B" stroke="#79321B" stroke-width="2"/>
<path d="M158.159 176.576C157.986 178.863 158.029 180.762 158.288 181.539C158.677 182.617 158.763 182.402 158.806 179.942C158.849 178.388 158.979 176.619 159.065 176.015C159.151 175.368 159.065 174.418 158.849 173.857C158.547 173.038 158.418 173.642 158.159 176.576Z" fill="#79321B" stroke="#79321B" stroke-width="2"/>
<path d="M163.295 174.466C162.001 175.674 161.699 176.278 161.526 178.048C161.354 179.903 161.44 180.378 162.389 181.457C163.77 183.096 166.057 183.183 167.654 181.672C168.948 180.464 168.776 179.989 167.352 180.982C166.057 181.888 163.856 181.845 162.993 180.896C162.173 179.989 162.044 177.875 162.734 176.365C163.295 175.113 165.237 173.905 166.791 173.905C167.438 173.905 167.826 173.732 167.654 173.474C167.093 172.524 164.849 173.042 163.295 174.466Z" fill="#79321B" stroke="#79321B" stroke-width="2"/>
<path d="M170.804 174.291C170.287 176.491 170.373 182.446 170.891 181.67C171.107 181.324 171.322 180.418 171.322 179.728C171.322 178.778 171.538 178.39 172.099 178.347C172.487 178.347 173.652 178.174 174.688 178.002L176.5 177.656V179.771C176.5 180.936 176.716 182.187 176.932 182.533C177.234 182.964 177.32 181.497 177.32 178.002C177.277 172.823 177.277 172.78 176.285 176.319C176.198 176.578 175.379 176.966 174.472 177.095C173.566 177.268 172.487 177.484 172.099 177.613C171.495 177.786 171.365 177.441 171.236 175.326C171.107 173.082 171.063 172.953 170.804 174.291Z" fill="#79321B" stroke="#79321B" stroke-width="2"/>
<path d="M117.426 176.534C116.736 178.562 116.822 182.402 117.556 182.661C118.246 182.92 122.864 181.971 123.338 181.453C123.64 181.108 119.541 181.539 118.462 181.928C117.944 182.143 117.815 181.798 117.815 180.46C117.815 178.821 117.901 178.734 119.455 178.475C121.785 178.044 122.562 177.785 122.562 177.397C122.562 177.181 121.742 177.181 120.749 177.397C117.987 177.914 117.944 177.914 118.16 176.49C118.419 174.808 118.031 174.851 117.426 176.534Z" fill="#79321B" stroke="#79321B" stroke-width="2"/>
</svg>
