<svg width="680" height="529" viewBox="0 0 680 529" fill="none" xmlns="http://www.w3.org/2000/svg">
<path d="M276.418 1.47006C234.285 7.4958 199.351 20.4846 164.951 43.3824C110.685 79.403 70.4179 135.911 54.4179 198.98C50.8179 212.907 47.8846 232.323 49.2179 233.126C50.8179 234.198 51.4846 232.323 53.0846 222.28C58.1513 189.473 70.8179 156.265 89.6179 125.6C126.951 65.0751 191.618 20.6185 261.618 7.3619C282.685 3.34474 323.885 2.4074 345.751 5.35332C415.351 14.9945 476.818 51.6846 519.885 109.264C541.618 138.321 560.018 180.635 566.285 216.12C569.085 231.921 569.885 234.331 571.618 233.126C572.685 232.457 569.485 211.969 566.551 200.32C557.751 166.308 541.351 132.028 521.351 105.247C511.618 92.2579 488.551 68.2888 475.751 57.9781C440.418 29.4563 398.685 10.5756 352.418 2.67521C335.485 -0.270709 293.218 -0.940236 276.418 1.47006Z" fill="#79321B"/>
<path d="M338.952 30.0609C328.152 39.3942 322.018 46.8609 317.485 56.4609L312.418 67.1275L304.152 66.7275C297.618 66.4609 295.218 66.9942 292.152 69.2609C284.685 74.8609 282.152 83.3942 284.285 95.7942C285.218 100.994 285.085 101.261 280.285 103.794C274.418 106.994 267.752 115.528 267.752 120.061C267.752 122.061 265.752 125.128 262.285 128.328C257.218 133.261 256.952 133.928 257.218 140.728C257.485 145.528 256.952 148.861 255.485 151.128C254.285 152.994 252.952 156.328 252.418 158.594C250.818 166.461 259.752 203.128 266.552 216.594C271.885 227.261 283.352 230.328 314.285 229.394C338.685 228.728 344.285 227.528 351.085 221.661C356.285 216.994 361.885 201.794 366.685 179.128C370.152 162.194 370.018 159.128 366.018 152.061C363.618 147.528 363.218 145.661 364.152 142.194C364.818 139.928 364.952 135.794 364.552 133.128C363.485 127.928 357.085 119.794 352.952 118.461C351.618 117.928 350.418 116.728 350.418 115.794C350.418 110.728 346.018 103.261 341.618 100.994C338.552 99.2609 337.352 97.7942 337.885 96.4609C341.618 87.1275 338.418 74.0609 331.218 69.6609C328.952 68.1942 324.685 67.1275 321.485 67.1275C314.552 67.1275 314.418 66.1942 319.752 55.6609C323.752 47.7942 330.552 39.5275 337.485 34.0609C339.618 32.4609 341.085 30.7275 340.818 30.0609C340.552 29.2609 339.752 29.3942 338.952 30.0609ZM308.818 69.2609C310.552 69.7942 311.752 71.1275 311.752 72.7275C311.752 74.8609 311.085 75.2609 308.418 74.8609C306.552 74.4609 305.085 74.5942 305.085 75.1275C305.085 77.7942 314.952 78.7275 318.418 76.4609C320.018 75.3942 319.618 75.1275 316.818 75.1275C311.618 75.1275 313.352 70.3275 318.952 69.2609C329.352 67.2609 337.085 74.7275 337.085 86.8609C337.085 96.0609 335.085 100.061 329.218 101.928C326.552 102.861 321.618 105.261 318.285 107.394C311.218 111.661 308.952 111.928 300.952 109.128C290.818 105.528 285.085 97.7942 285.085 87.7942C285.085 73.7942 295.352 65.6609 308.818 69.2609ZM345.352 107.261C346.952 109.261 347.885 112.994 347.885 117.394C348.152 125.928 344.552 131.261 334.818 137.528C320.018 146.994 279.218 155.394 268.418 151.261C266.418 150.461 267.618 149.928 272.818 149.261C286.152 147.528 311.218 136.861 323.885 127.661C332.818 121.128 337.085 114.328 337.085 106.594C337.085 100.194 337.085 100.194 340.018 102.061C341.618 103.128 344.018 105.528 345.352 107.261ZM291.752 106.461L294.818 109.661L288.285 112.594C270.152 120.461 268.552 120.594 271.885 114.194C274.018 110.061 283.218 103.128 286.418 103.128C287.618 103.128 290.018 104.594 291.752 106.461ZM334.818 108.194C334.285 120.061 315.885 133.794 287.885 143.128C275.485 147.261 264.152 148.328 261.352 145.528C260.418 144.594 259.752 141.661 259.752 138.728C259.752 130.461 264.818 126.461 276.418 125.394C288.818 124.328 301.218 120.328 311.085 114.328C330.952 101.928 335.218 100.861 334.818 108.194ZM307.752 113.928C307.752 116.861 272.685 125.928 270.552 123.661C270.152 123.128 270.418 122.461 271.085 122.194C271.885 121.928 278.152 119.128 285.085 116.061C296.418 110.994 298.285 110.461 302.818 111.661C305.485 112.461 307.752 113.394 307.752 113.928ZM359.485 127.128C363.618 133.261 363.485 141.661 359.085 146.861C355.485 151.261 345.885 155.794 337.752 157.128C331.752 158.061 331.618 158.461 342.818 150.194C350.685 144.594 354.818 136.594 354.152 128.461C353.752 120.861 354.952 120.461 359.485 127.128ZM353.085 129.528C353.085 138.328 344.418 148.328 330.152 155.794C322.685 159.794 319.218 160.728 310.152 161.394C297.352 162.328 278.152 160.061 270.818 156.728L265.752 154.594L281.085 153.661C313.485 151.928 341.352 140.861 348.685 126.728C350.285 123.661 350.952 123.128 351.885 124.594C352.552 125.661 353.085 127.794 353.085 129.528ZM365.618 155.394C368.952 163.528 367.752 170.328 362.418 173.128C356.818 176.061 337.218 179.128 318.418 180.061C292.018 181.261 260.285 176.861 256.152 171.394C253.752 168.461 254.018 158.461 256.552 153.528L258.685 149.528L262.552 153.528C268.818 159.928 276.685 162.061 297.752 162.728C323.485 163.661 348.018 158.861 357.352 151.128C361.485 147.661 362.685 148.328 365.618 155.394ZM266.285 178.328C268.952 179.528 270.018 181.661 271.752 189.794C272.952 195.261 275.352 204.994 277.085 211.394C278.818 217.794 279.885 223.394 279.485 223.794C278.018 225.261 271.618 221.261 269.218 217.261C265.752 211.661 257.085 184.194 257.085 179.128C257.085 175.394 257.485 174.994 260.152 175.794C261.752 176.328 264.552 177.394 266.285 178.328ZM365.085 176.328C365.085 178.994 358.418 202.994 355.752 210.061C352.952 217.528 346.818 224.461 342.952 224.461C340.552 224.461 340.552 223.528 343.218 216.328C344.952 211.261 349.618 193.394 352.285 181.661C352.818 179.261 354.285 177.794 357.352 176.861C363.085 174.994 365.085 174.861 365.085 176.328ZM286.018 181.261C289.352 181.928 289.352 182.061 291.752 204.994C292.552 212.994 293.618 221.261 294.018 223.394C294.685 226.861 294.418 227.128 290.818 227.128C288.685 227.128 285.885 226.328 284.685 225.394C282.418 223.661 271.085 182.461 272.418 180.461C273.085 179.394 278.552 179.661 286.018 181.261ZM349.618 184.061C348.552 190.328 338.818 224.461 337.885 225.394C337.618 225.794 334.818 226.328 331.752 226.728C326.685 227.394 326.152 227.261 326.818 224.994C327.885 221.528 331.618 194.461 332.018 187.128L332.418 181.128L338.418 180.328C350.952 178.594 350.685 178.594 349.618 184.061ZM309.085 205.128V228.461H303.085C298.018 228.461 297.085 228.061 296.418 225.394C295.218 220.194 291.752 191.128 291.752 186.328V181.794H300.418H309.085V205.128ZM329.618 191.394C328.818 201.928 325.218 225.794 324.152 227.394C323.885 228.061 320.952 228.461 317.618 228.461H311.752V205.128V181.794H321.085H330.418L329.618 191.394Z" fill="#79321B"/>
<path d="M164.151 283.127C154.951 287.394 126.018 305.927 112.551 316.194C104.285 322.461 103.751 322.594 89.8846 324.327C73.4846 326.327 68.4179 329.261 83.8846 327.794C89.3512 327.394 94.9512 326.594 96.4179 326.327C98.1512 325.927 96.8179 327.527 93.0846 330.727C81.2179 340.727 76.4179 345.661 77.3512 346.594C77.8846 347.127 80.9512 345.127 84.0179 342.327C87.2179 339.394 93.0846 334.461 97.2179 331.394L104.818 325.661L122.951 326.061L141.085 326.461L136.285 333.127C130.551 341.127 126.418 348.994 126.418 351.794C126.418 355.127 128.685 354.061 129.618 350.061C130.018 348.061 133.751 341.794 137.885 335.927L145.351 325.394L161.885 326.327C172.418 326.994 178.418 326.861 178.418 326.061C178.418 325.261 172.551 324.327 165.485 323.794C158.285 323.394 151.351 322.861 150.018 322.727C148.151 322.461 149.485 320.194 156.151 311.794C172.818 290.594 178.418 282.994 178.418 280.994C178.418 278.061 173.218 278.727 164.151 283.127ZM172.151 286.727C170.018 289.527 162.685 298.861 155.885 307.394L143.618 323.127H126.018C116.418 323.127 109.085 322.594 109.885 322.061C118.551 314.461 151.885 292.327 163.085 286.594C175.085 280.461 176.951 280.461 172.151 286.727Z" fill="#79321B"/>
<path d="M242.818 282.328C228.418 286.994 210.951 298.461 205.618 306.461C201.618 312.728 204.685 311.261 212.818 303.261C226.951 289.528 248.285 280.861 265.351 282.061C274.151 282.728 276.951 285.128 277.085 292.194C277.085 301.128 266.818 314.061 254.818 320.194C243.085 326.328 224.151 329.128 222.818 324.994C222.551 324.328 228.018 317.661 234.951 310.461C241.885 303.128 247.351 296.861 247.085 296.594C245.885 295.394 239.485 300.861 229.885 311.528C221.485 320.728 219.085 322.594 216.551 322.194C212.685 321.394 211.085 323.528 213.218 326.861C214.418 328.861 213.751 330.594 208.685 337.794C201.351 348.461 198.418 354.194 198.418 357.794C198.418 360.194 200.951 361.794 201.218 359.394C201.751 354.328 203.485 350.461 209.885 340.861C214.685 333.928 218.285 329.794 219.751 329.794C221.218 329.794 223.618 332.328 225.751 336.061C230.285 344.061 235.485 349.661 239.485 351.261C243.351 352.728 252.685 350.594 261.751 346.061C273.751 340.061 288.685 328.461 284.285 328.461C283.885 328.461 279.751 331.128 275.218 334.461C264.418 342.061 250.818 348.461 244.685 348.728C241.485 348.861 238.685 347.928 236.951 346.328C233.885 343.661 226.418 332.728 226.418 330.861C226.418 330.328 228.418 329.794 230.818 329.794C242.685 329.794 259.351 322.194 269.351 312.328C280.551 301.261 283.085 288.861 275.618 282.594C272.018 279.528 270.418 279.128 262.018 279.128C255.751 279.261 249.085 280.328 242.818 282.328Z" fill="#79321B"/>
<path d="M421.085 281.127C410.552 283.261 404.018 285.527 393.618 290.861C384.285 295.527 369.618 306.327 367.618 309.927C365.885 313.394 367.618 313.127 371.618 309.261C378.818 302.594 395.218 292.327 404.952 288.594C429.752 279.127 455.085 280.594 452.418 291.394C451.085 296.594 443.352 303.927 434.685 308.327C428.285 311.527 426.018 312.061 420.018 311.527C411.485 310.594 400.685 314.194 401.352 317.661C402.018 320.861 408.552 320.994 418.285 317.927C427.885 314.994 431.218 315.661 432.552 320.994C434.418 328.594 434.018 328.727 413.085 329.127C402.418 329.261 392.152 329.927 390.152 330.461C387.885 330.994 386.418 330.861 386.418 330.194C386.418 328.461 417.752 296.461 423.752 292.061C426.285 290.194 427.885 288.194 427.352 287.661C425.218 285.527 404.952 304.061 389.485 322.194C383.885 328.727 377.618 334.594 375.352 335.661C365.352 339.794 359.752 347.927 363.885 352.061C364.952 353.127 364.685 354.461 363.085 356.861C361.752 359.127 361.485 360.461 362.285 361.127C363.085 361.527 364.418 360.461 365.218 358.727C366.552 355.661 367.218 355.527 378.818 355.661C385.618 355.661 394.418 354.861 398.418 353.927C410.418 350.994 424.552 343.661 429.218 337.927C432.952 333.127 433.618 332.861 437.485 333.927C442.685 335.394 442.418 335.394 442.418 333.927C442.418 333.261 440.685 332.061 438.685 331.394C435.352 330.327 434.952 329.527 435.485 326.061C435.752 323.927 434.952 320.194 433.752 317.794C432.552 315.527 431.752 313.394 432.018 313.261C432.285 313.127 435.218 311.394 438.552 309.394C446.285 304.994 453.885 296.594 455.085 291.127C457.352 280.994 442.818 276.727 421.085 281.127ZM418.418 315.127C418.418 315.794 417.618 316.461 416.818 316.461C415.885 316.461 412.685 316.861 409.752 317.261C406.152 317.927 404.818 317.661 405.752 316.727C408.285 314.194 418.418 312.861 418.418 315.127ZM427.752 332.461C429.352 333.394 429.218 334.194 426.418 337.127C418.285 345.927 399.085 352.727 382.285 352.994C376.685 353.127 371.618 352.727 371.085 352.194C370.152 351.261 378.018 339.527 381.618 336.594C386.418 332.594 422.818 329.261 427.752 332.461ZM374.418 340.061C374.418 341.527 367.618 349.794 366.285 349.794C363.752 349.794 365.218 345.127 368.818 342.194C372.418 339.127 374.418 338.461 374.418 340.061Z" fill="#79321B"/>
<path d="M506.418 281.127C505.352 282.461 502.285 283.127 497.085 283.127C489.218 283.127 485.085 284.061 485.085 285.661C485.085 286.194 488.685 286.327 493.085 286.061C501.618 285.394 502.818 286.461 498.285 290.594C494.285 294.194 469.752 325.527 460.152 339.127C452.552 350.194 452.152 350.461 445.352 351.794C441.485 352.461 438.418 353.661 438.685 354.461C438.952 355.127 439.352 355.661 439.752 355.527C440.152 355.394 442.685 354.994 445.485 354.461C449.752 353.661 450.418 353.794 450.418 355.927C450.552 358.327 450.552 358.327 452.285 356.061C453.618 354.327 456.018 353.794 462.285 353.794C466.818 353.794 470.418 353.261 470.418 352.461C470.418 351.261 466.418 350.594 459.485 350.727C458.152 350.727 457.085 350.327 457.085 349.794C457.085 348.061 473.618 324.994 485.885 309.661L498.152 294.327L517.352 291.394C545.618 287.127 553.485 286.461 552.952 288.194C552.685 289.127 542.552 301.527 530.418 315.794C509.618 340.461 498.418 355.927 498.418 360.194C498.418 363.261 501.485 361.127 502.552 357.261C503.885 352.461 513.885 339.394 535.352 314.327C544.952 303.261 554.018 292.194 555.618 289.927L558.552 285.794H572.418H586.285L583.085 290.594C578.818 296.727 578.952 298.327 583.352 301.661C585.218 303.261 586.552 304.594 586.285 304.861C586.018 304.994 582.285 306.861 578.152 309.127C553.618 321.661 540.418 342.461 551.485 351.127C556.552 355.261 569.485 354.327 579.752 349.127C587.885 345.127 602.152 335.261 604.952 331.927C608.685 327.394 604.952 328.327 598.818 333.394C584.285 345.261 571.752 351.127 561.085 351.127C553.352 351.127 550.418 348.727 550.418 342.594C550.418 330.861 571.352 312.727 592.952 305.661C604.952 301.794 606.285 300.061 596.418 301.127C589.618 301.927 587.885 301.661 585.085 299.394C582.018 296.861 582.018 296.727 584.152 293.261C585.352 291.394 588.418 288.861 590.685 287.661C594.818 285.527 595.085 285.527 597.218 288.327C600.285 292.061 601.618 291.927 600.552 287.794C599.885 285.261 600.285 284.461 601.752 284.461C602.818 284.461 604.552 285.927 605.352 287.794C607.218 291.927 609.618 292.194 608.285 288.061C606.552 282.061 606.018 281.927 583.485 282.594C567.352 282.994 561.618 282.727 560.952 281.527C560.152 280.327 559.352 280.461 557.352 282.194C556.018 283.394 552.818 284.461 550.285 284.461C547.752 284.461 539.485 285.394 532.018 286.461C519.752 288.194 518.018 288.194 516.152 286.461C515.085 285.394 512.952 284.461 511.485 284.461C509.618 284.461 509.085 283.794 509.485 282.461C510.552 279.794 508.418 278.727 506.418 281.127ZM513.085 288.327C513.085 289.394 503.618 291.261 502.552 290.327C502.418 290.194 502.552 289.394 503.085 288.594C504.152 286.861 513.085 286.594 513.085 288.327Z" fill="#79321B"/>
<path d="M54.4182 281.928C41.7516 283.261 19.8849 287.528 13.8849 289.794C6.55158 292.594 11.6182 292.728 23.3516 290.061C55.0849 282.594 89.0849 282.061 93.3516 288.861C93.8849 289.661 94.6849 289.928 95.2182 289.394C97.6182 286.994 90.6849 282.994 82.2849 281.794C72.5516 280.328 70.1516 280.328 54.4182 281.928Z" fill="#79321B"/>
<path d="M647.618 283.527C632.151 288.194 618.018 297.527 613.618 305.927C611.085 310.994 611.218 318.194 614.151 321.794C615.485 323.394 620.685 327.527 625.751 330.861C630.951 334.327 635.218 338.061 635.485 339.127C635.751 340.594 632.818 342.194 624.818 344.861C612.151 348.861 607.751 351.527 607.751 354.994C607.751 357.661 611.218 359.127 617.751 359.127C626.285 359.127 641.085 349.394 641.085 343.794C641.085 342.194 646.685 339.927 667.085 333.127C677.618 329.661 682.285 327.127 678.418 327.127C677.351 327.127 668.151 329.927 658.151 333.394L639.885 339.661L637.085 336.194C635.618 334.194 630.818 330.461 626.418 327.794C612.151 319.127 610.551 312.461 620.418 301.927C633.085 288.327 664.018 278.861 672.551 285.927C676.951 289.527 673.618 298.994 665.485 305.661C660.151 310.061 660.285 312.861 665.751 309.261C676.018 302.461 680.551 288.061 673.618 283.661C668.285 280.061 658.951 280.061 647.618 283.527ZM636.418 346.994C635.351 350.461 624.951 355.394 616.951 356.194C609.885 356.861 608.285 354.994 613.351 352.327C617.485 350.061 636.285 343.261 636.818 343.794C637.085 344.061 636.951 345.527 636.418 346.994Z" fill="#79321B"/>
<path d="M36.4182 304.861C21.8848 320.194 21.6182 320.328 13.3515 322.061C8.68484 322.994 5.08484 324.328 5.3515 325.128C5.61817 325.794 6.1515 326.328 6.68484 326.194C7.21817 325.928 10.0182 325.394 13.0848 324.994L18.6848 324.061L11.4848 333.394C3.08484 344.461 -1.18183 351.928 0.284836 353.394C0.951503 353.928 1.7515 353.661 2.01817 352.728C3.48484 348.861 15.7515 331.528 20.1515 327.394C24.6848 322.994 25.2182 322.861 38.2848 322.194C46.9515 321.661 51.4848 320.994 50.5515 320.061C49.8848 319.394 44.4182 318.994 38.5515 319.261C32.5515 319.528 27.7515 319.528 27.7515 318.994C27.7515 318.594 33.2182 312.461 39.8848 305.394C46.5515 298.328 51.7515 291.794 51.4848 290.994C51.2182 290.061 44.4182 296.461 36.4182 304.861Z" fill="#79321B"/>
<path d="M52.418 343.128C52.018 343.794 52.5513 344.461 53.618 344.461C54.818 344.461 55.7513 343.794 55.7513 343.128C55.7513 342.328 55.218 341.794 54.5513 341.794C53.7513 341.794 52.818 342.328 52.418 343.128Z" fill="#79321B"/>
<path d="M169.751 343.128C169.351 343.794 169.885 344.461 170.951 344.461C172.151 344.461 173.085 343.794 173.085 343.128C173.085 342.328 172.551 341.794 171.885 341.794C171.085 341.794 170.151 342.328 169.751 343.128Z" fill="#79321B"/>
<path d="M71.7515 376.461C71.7515 379.528 82.1515 398.061 91.8848 412.461C118.951 452.461 152.151 480.994 196.418 502.728C234.551 521.394 274.151 529.528 319.085 528.061C360.418 526.728 392.818 518.594 429.751 500.194C469.485 480.194 506.685 446.594 532.018 407.794C541.485 393.261 549.885 376.861 548.418 375.394C547.351 374.328 547.485 374.061 538.285 390.461C506.685 446.328 459.485 486.994 400.418 509.128C371.485 519.928 344.418 524.594 310.418 524.594C270.951 524.594 241.351 518.728 208.818 504.594C151.885 479.794 107.218 438.594 78.9515 384.728C74.4181 375.928 71.7515 372.994 71.7515 376.461Z" fill="#79321B"/>
<path d="M327.218 402.861C325.618 404.727 325.085 407.261 325.218 411.261C325.351 414.461 324.818 418.461 324.018 420.061C322.018 423.794 322.018 428.861 324.018 430.861C326.151 432.994 330.818 432.861 332.818 430.861C334.151 429.527 335.085 429.527 337.218 430.861C340.685 433.127 342.418 431.661 339.085 429.261C336.951 427.794 336.951 426.994 338.151 423.127C340.018 417.794 340.018 417.794 338.551 417.794C337.885 417.794 336.951 419.261 336.551 421.127C335.485 425.394 334.151 425.394 331.351 420.727C329.218 416.994 329.218 416.727 332.551 412.327C336.551 406.861 336.418 401.261 332.285 400.727C330.818 400.461 328.551 401.527 327.218 402.861ZM333.085 405.527C333.085 406.727 331.885 409.261 330.418 411.127C328.018 414.194 327.751 414.327 327.618 411.794C327.351 407.794 327.885 405.261 329.351 403.527C331.085 401.394 333.085 402.594 333.085 405.527ZM330.818 424.327C332.818 427.794 332.818 428.327 330.951 428.994C326.685 430.594 325.085 429.794 325.085 426.061C325.085 419.394 327.485 418.727 330.818 424.327Z" fill="#79321B"/>
<path d="M171.752 402.461C170.685 402.727 167.352 403.394 164.418 403.794C159.485 404.594 159.352 404.861 161.618 406.594C163.752 408.061 164.018 409.527 163.352 416.061C162.952 420.327 163.085 425.927 163.618 428.461L164.685 433.127L165.752 426.194L166.685 419.394L172.952 418.461C183.085 417.127 184.552 414.727 174.818 415.661L166.418 416.461V411.261V406.061L175.352 405.127C181.218 404.461 183.485 403.794 182.285 402.994C180.418 401.927 175.885 401.661 171.752 402.461Z" fill="#79321B"/>
<path d="M208.418 403.394C208.152 404.328 207.618 408.061 207.352 411.528C206.952 416.061 205.485 419.394 202.818 422.861C195.218 432.328 191.885 429.128 191.618 412.061C191.485 402.594 191.485 402.461 190.152 408.461C188.685 415.394 189.618 426.594 191.885 429.261C194.685 432.594 199.352 431.394 203.618 426.194L207.752 421.128V426.061C207.752 428.728 208.418 431.394 209.085 431.794C209.885 432.328 210.418 427.128 210.418 417.261C210.418 403.128 209.885 399.128 208.418 403.394Z" fill="#79321B"/>
<path d="M222.418 402.994C219.218 403.927 219.085 404.194 219.085 416.461C219.085 428.727 219.218 429.127 222.685 430.994C226.018 432.861 226.552 432.861 229.885 430.327C235.485 426.194 238.552 421.394 239.352 415.527C239.885 411.261 239.485 409.661 236.952 406.727C233.485 402.861 227.752 401.394 222.418 402.994ZM232.552 406.861C233.352 407.394 234.685 408.994 235.352 410.461C238.418 416.461 231.085 428.461 224.418 428.461C221.085 428.461 221.085 428.327 221.085 417.127V405.794H226.152C228.818 405.794 231.752 406.327 232.552 406.861Z" fill="#79321B"/>
<path d="M254.552 403.527C252.818 404.327 250.152 406.727 248.685 408.727C245.218 413.394 244.152 425.394 246.685 428.994C249.085 432.061 254.952 432.194 258.285 429.261C261.218 426.594 262.418 426.594 262.418 429.127C262.418 430.194 263.085 431.127 263.752 431.127C264.552 431.127 265.085 427.527 265.085 422.861C265.085 414.327 264.152 413.661 261.752 420.861C260.018 426.194 254.152 429.794 250.818 427.661C249.085 426.461 248.418 424.461 248.685 419.927C248.952 412.461 253.085 405.927 258.552 404.861C260.685 404.461 262.418 403.661 262.418 402.994C262.418 401.261 258.285 401.527 254.552 403.527Z" fill="#79321B"/>
<path d="M277.218 403.394C274.018 404.061 272.018 405.128 272.552 405.794C274.152 407.128 293.218 404.461 292.285 402.994C291.352 401.528 284.818 401.661 277.218 403.394Z" fill="#79321B"/>
<path d="M376.951 403.794C373.085 405.928 371.751 410.194 371.751 420.994C371.751 432.994 374.018 432.061 374.818 419.661C375.618 406.861 377.351 403.928 383.751 404.728C386.418 404.994 387.085 405.794 387.085 409.128C387.085 412.461 386.285 413.528 381.485 415.794C374.951 418.861 374.285 420.461 379.485 420.461C382.151 420.461 383.751 421.528 385.351 424.194C387.885 428.461 393.085 433.394 393.085 431.661C393.085 430.861 391.218 427.794 388.951 424.594L384.685 418.994L387.751 415.794C391.085 412.328 391.618 406.861 389.085 403.794C386.951 401.261 381.485 401.261 376.951 403.794Z" fill="#79321B"/>
<path d="M399.085 412.728C398.551 419.794 398.685 425.661 399.485 428.061C400.685 431.394 400.951 430.728 401.085 423.128C401.218 418.328 401.618 412.861 401.885 410.994C402.151 408.994 401.885 406.061 401.218 404.328C400.285 401.794 399.885 403.661 399.085 412.728Z" fill="#79321B"/>
<path d="M414.951 406.194C410.951 409.928 410.018 411.794 409.485 417.261C408.951 422.994 409.218 424.461 412.151 427.794C416.418 432.861 423.485 433.128 428.418 428.461C432.418 424.728 431.885 423.261 427.485 426.328C423.485 429.128 416.685 428.994 414.018 426.061C411.485 423.261 411.085 416.728 413.218 412.061C414.951 408.194 420.951 404.461 425.751 404.461C427.751 404.461 428.951 403.928 428.418 403.128C426.685 400.194 419.751 401.794 414.951 406.194Z" fill="#79321B"/>
<path d="M438.152 405.661C436.552 412.461 436.818 430.861 438.418 428.461C439.085 427.394 439.752 424.594 439.752 422.461C439.752 419.527 440.418 418.327 442.152 418.194C443.352 418.194 446.952 417.661 450.152 417.127L455.752 416.061V422.594C455.752 426.194 456.418 430.061 457.085 431.127C458.018 432.461 458.285 427.927 458.285 417.127C458.152 401.127 458.152 400.994 455.085 411.927C454.818 412.727 452.285 413.927 449.485 414.327C446.685 414.861 443.352 415.527 442.152 415.927C440.285 416.461 439.885 415.394 439.485 408.861C439.085 401.927 438.952 401.527 438.152 405.661Z" fill="#79321B"/>
<path d="M273.218 412.594C271.085 418.861 271.352 430.727 273.618 431.527C275.752 432.327 290.018 429.394 291.485 427.794C292.418 426.727 279.752 428.061 276.418 429.261C274.818 429.927 274.418 428.861 274.418 424.727C274.418 419.661 274.685 419.394 279.485 418.594C286.685 417.261 289.085 416.461 289.085 415.261C289.085 414.594 286.552 414.594 283.485 415.261C274.952 416.861 274.818 416.861 275.485 412.461C276.285 407.261 275.085 407.394 273.218 412.594Z" fill="#79321B"/>
</svg>
