<svg width="502" height="390" viewBox="0 0 502 390" fill="none" xmlns="http://www.w3.org/2000/svg">
<path d="M204.319 1.77222C173.328 6.20445 147.632 15.7584 122.33 32.6008C82.4138 59.0956 52.7957 100.66 41.0269 147.051C38.3789 157.294 36.2213 171.576 37.2021 172.167C38.3789 172.955 38.8693 171.576 40.0462 164.189C43.773 140.058 53.0899 115.631 66.9182 93.076C94.3787 48.5568 141.944 15.8568 193.433 6.10595C208.928 3.15114 239.233 2.46168 255.317 4.62854C306.511 11.7201 351.723 38.7074 383.4 81.0598C399.386 102.433 412.92 133.557 417.53 159.658C419.589 171.28 420.178 173.053 421.452 172.167C422.237 171.674 419.883 156.605 417.726 148.036C411.253 123.018 399.19 97.8037 384.479 78.105C377.32 68.5511 360.353 50.9207 350.938 43.3366C324.949 22.3574 294.252 8.46981 260.22 2.65867C247.765 0.491803 216.676 -0.000666037 204.319 1.77222Z" fill="#79321B" stroke="#79321B"/>
<path d="M250.315 22.8021C242.371 29.6672 237.86 35.1593 234.525 42.2205L230.799 50.0664L224.718 49.7722C219.913 49.576 218.147 49.9683 215.892 51.6355C210.4 55.7546 208.536 62.0313 210.105 71.1521C210.792 74.977 210.694 75.1731 207.163 77.0365C202.848 79.3902 197.944 85.6669 197.944 89.0014C197.944 90.4725 196.473 92.7282 193.923 95.0819C190.196 98.7106 190 99.201 190.196 104.203C190.393 107.733 190 110.185 188.921 111.852C188.039 113.225 187.058 115.677 186.666 117.345C185.489 123.131 192.06 150.101 197.062 160.006C200.984 167.852 209.419 170.108 232.172 169.421C250.119 168.931 254.238 168.048 259.24 163.733C263.065 160.301 267.184 149.12 270.714 132.448C273.264 119.993 273.166 117.737 270.224 112.539C268.459 109.204 268.165 107.831 268.851 105.282C269.341 103.614 269.44 100.574 269.145 98.6126C268.361 94.7877 263.653 88.8053 260.613 87.8245C259.632 87.4322 258.75 86.5496 258.75 85.8631C258.75 82.1363 255.513 76.6442 252.277 74.977C250.021 73.702 249.138 72.6232 249.531 71.6425C252.277 64.7773 249.923 55.1662 244.627 51.9298C242.96 50.851 239.821 50.0664 237.468 50.0664C232.368 50.0664 232.27 49.3799 236.193 41.6321C239.135 35.8458 244.137 29.7652 249.236 25.7442C250.806 24.5674 251.884 23.2924 251.688 22.8021C251.492 22.2136 250.904 22.3117 250.315 22.8021ZM228.151 51.6355C229.426 52.0278 230.308 53.0086 230.308 54.1855C230.308 55.7546 229.818 56.0488 227.857 55.7546C226.483 55.4604 225.405 55.5585 225.405 55.9508C225.405 57.9122 232.662 58.5987 235.212 56.9315C236.389 56.1469 236.095 55.9508 234.035 55.9508C230.21 55.9508 231.485 52.4201 235.604 51.6355C243.254 50.1645 248.942 55.6565 248.942 64.5812C248.942 71.3482 247.471 74.2904 243.156 75.6635C241.194 76.35 237.566 78.1153 235.114 79.6845C229.916 82.8228 228.249 83.0189 222.364 80.9594C214.911 78.3114 210.694 72.6232 210.694 65.2677C210.694 54.97 218.245 48.9876 228.151 51.6355ZM255.023 79.5864C256.2 81.0575 256.886 83.8035 256.886 87.0399C257.082 93.3166 254.434 97.2395 247.275 101.849C236.389 108.812 206.379 114.991 198.435 111.951C196.963 111.362 197.846 110.97 201.671 110.479C211.478 109.204 229.916 101.359 239.233 94.5916C245.804 89.786 248.942 84.7843 248.942 79.096C248.942 74.3885 248.942 74.3885 251.1 75.7615C252.277 76.5461 254.042 78.3114 255.023 79.5864ZM215.597 78.9979L217.853 81.3517L213.047 83.5093C199.71 89.2956 198.533 89.3937 200.984 84.6862C202.554 81.6459 209.321 76.5461 211.674 76.5461C212.557 76.5461 214.322 77.6249 215.597 78.9979ZM247.275 80.2729C246.883 89.0014 233.349 99.1029 212.753 105.968C203.632 109.008 195.296 109.793 193.237 107.733C192.55 107.047 192.06 104.889 192.06 102.732C192.06 96.6511 195.787 93.7089 204.319 92.9243C213.44 92.1397 222.561 89.1976 229.818 84.7843C244.431 75.6635 247.569 74.8789 247.275 80.2729ZM227.366 84.49C227.366 86.6477 201.573 93.3166 200.004 91.6494C199.71 91.2571 199.906 90.7667 200.396 90.5706C200.984 90.3744 205.594 88.3149 210.694 86.0592C219.03 82.3324 220.403 81.9401 223.737 82.8228C225.699 83.4112 227.366 84.0978 227.366 84.49ZM265.419 94.1993C268.459 98.7106 268.361 104.889 265.124 108.714C262.476 111.951 255.415 115.285 249.433 116.266C245.019 116.952 244.921 117.246 253.159 111.166C258.946 107.047 261.986 101.162 261.496 95.18C261.201 89.5898 262.084 89.2956 265.419 94.1993ZM260.711 95.9646C260.711 102.437 254.336 109.793 243.842 115.285C238.35 118.227 235.8 118.914 229.131 119.404C219.716 120.091 205.594 118.423 200.2 115.972L196.473 114.402L207.752 113.716C231.583 112.441 252.081 104.301 257.475 93.9051C258.651 91.6494 259.142 91.2571 259.828 92.3359C260.319 93.1205 260.711 94.6896 260.711 95.9646ZM269.93 114.991C272.382 120.973 271.499 125.975 267.576 128.035C263.457 130.192 249.04 132.448 235.212 133.134C215.794 134.017 192.452 130.781 189.412 126.76C187.647 124.602 187.843 117.246 189.706 113.618L191.275 110.676L194.119 113.618C198.729 118.325 204.515 119.894 220.011 120.385C238.939 121.071 256.984 117.541 263.849 111.852C266.89 109.303 267.772 109.793 269.93 114.991ZM196.865 131.859C198.827 132.742 199.611 134.311 200.886 140.294C201.769 144.315 203.534 151.474 204.809 156.181C206.084 160.889 206.869 165.008 206.575 165.302C205.496 166.381 200.788 163.439 199.023 160.497C196.473 156.378 190.098 136.175 190.098 132.448C190.098 129.702 190.393 129.408 192.354 129.996C193.531 130.388 195.59 131.173 196.865 131.859ZM269.538 130.388C269.538 132.35 264.634 150.003 262.672 155.201C260.613 160.693 256.102 165.793 253.257 165.793C251.492 165.793 251.492 165.106 253.454 159.81C254.729 156.083 258.161 142.942 260.123 134.311C260.515 132.546 261.594 131.467 263.849 130.781C268.066 129.408 269.538 129.309 269.538 130.388ZM211.38 134.017C213.832 134.507 213.832 134.605 215.597 151.474C216.186 157.358 216.97 163.439 217.265 165.008C217.755 167.558 217.559 167.754 214.911 167.754C213.342 167.754 211.282 167.166 210.4 166.479C208.732 165.204 200.396 134.9 201.377 133.429C201.867 132.644 205.888 132.84 211.38 134.017ZM258.161 136.077C257.377 140.686 250.217 165.793 249.531 166.479C249.335 166.773 247.275 167.166 245.019 167.46C241.293 167.95 240.9 167.852 241.391 166.185C242.175 163.635 244.921 143.726 245.215 138.332L245.51 133.919L249.923 133.33C259.142 132.056 258.946 132.056 258.161 136.077ZM228.347 151.572V168.735H223.934C220.207 168.735 219.52 168.441 219.03 166.479C218.147 162.654 215.597 141.274 215.597 137.744V134.409H221.972H228.347V151.572ZM243.45 141.471C242.862 149.218 240.214 166.773 239.429 167.95C239.233 168.441 237.075 168.735 234.624 168.735H230.308V151.572V134.409H237.173H244.039L243.45 141.471Z" fill="#79321B" stroke="#79321B"/>
<path d="M121.741 208.945C114.974 212.083 93.6924 225.715 83.787 233.267C77.7065 237.876 77.3142 237.975 67.1146 239.249C55.0516 240.721 51.3248 242.878 62.7013 241.799C66.7223 241.505 70.8414 240.917 71.9202 240.721C73.1952 240.426 72.2144 241.603 69.4684 243.957C60.7399 251.312 57.2092 254.941 57.8957 255.628C58.288 256.02 60.5437 254.549 62.7994 252.489C65.1532 250.332 69.4684 246.703 72.5086 244.447L78.0988 240.23L91.4367 240.524L104.775 240.819L101.244 245.722C97.0269 251.607 93.9866 257.393 93.9866 259.453C93.9866 261.904 95.6539 261.12 96.3404 258.178C96.6346 256.707 99.3807 252.097 102.421 247.782L107.913 240.034L120.074 240.721C127.822 241.211 132.235 241.113 132.235 240.524C132.235 239.936 127.92 239.249 122.722 238.857C117.426 238.563 112.326 238.171 111.346 238.073C109.973 237.876 110.953 236.209 115.857 230.031C128.116 214.437 132.235 208.847 132.235 207.376C132.235 205.218 128.41 205.708 121.741 208.945ZM127.626 211.593C126.057 213.652 120.663 220.518 115.661 226.794L106.638 238.367H93.6924C86.6312 238.367 81.2371 237.975 81.8256 237.582C88.2003 231.992 112.719 215.712 120.957 211.495C129.783 206.983 131.156 206.983 127.626 211.593Z" fill="#79321B" stroke="#79321B"/>
<path d="M179.604 208.356C169.012 211.789 156.165 220.223 152.242 226.108C149.3 230.717 151.555 229.638 157.538 223.754C167.933 213.652 183.625 207.278 196.178 208.16C202.651 208.651 204.711 210.416 204.809 215.614C204.809 222.185 197.257 231.698 188.431 236.209C179.8 240.721 165.874 242.78 164.893 239.74C164.697 239.25 168.718 234.346 173.818 229.05C178.918 223.656 182.939 219.046 182.742 218.85C181.86 217.968 177.152 221.989 170.091 229.835C163.912 236.602 162.147 237.975 160.284 237.68C157.44 237.092 156.263 238.661 157.832 241.113C158.715 242.584 158.224 243.859 154.497 249.155C149.103 257.001 146.946 261.218 146.946 263.866C146.946 265.631 148.809 266.808 149.005 265.043C149.398 261.316 150.673 258.472 155.38 251.411C158.911 246.311 161.559 243.271 162.637 243.271C163.716 243.271 165.482 245.134 167.051 247.88C170.385 253.764 174.21 257.883 177.152 259.06C179.996 260.139 186.862 258.57 193.531 255.235C202.357 250.822 213.341 242.29 210.105 242.29C209.811 242.29 206.77 244.251 203.436 246.703C195.492 252.293 185.489 257.001 180.977 257.197C178.623 257.295 176.564 256.608 175.289 255.432C173.033 253.47 167.541 245.428 167.541 244.055C167.541 243.663 169.012 243.271 170.778 243.271C179.506 243.271 191.765 237.68 199.121 230.423C207.359 222.283 209.222 213.162 203.73 208.553C201.082 206.297 199.905 206.003 193.727 206.003C189.117 206.101 184.214 206.885 179.604 208.356Z" fill="#79321B" stroke="#79321B"/>
<path d="M310.728 207.474C302.98 209.043 298.175 210.71 290.525 214.633C283.66 218.066 272.872 226.01 271.401 228.658C270.126 231.207 271.401 231.011 274.343 228.167C279.639 223.264 291.702 215.712 298.861 212.966C317.103 206.003 335.737 207.081 333.775 215.025C332.795 218.85 327.106 224.244 320.732 227.481C316.024 229.834 314.357 230.227 309.944 229.834C303.667 229.148 295.723 231.796 296.213 234.346C296.704 236.7 301.509 236.798 308.669 234.542C315.73 232.384 318.182 232.875 319.163 236.798C320.536 242.388 320.241 242.486 304.844 242.78C296.998 242.878 289.446 243.369 287.975 243.761C286.308 244.153 285.229 244.055 285.229 243.565C285.229 242.29 308.276 218.752 312.69 215.516C314.553 214.143 315.73 212.672 315.338 212.279C313.768 210.71 298.861 224.342 287.485 237.68C283.366 242.486 278.756 246.801 277.089 247.586C269.734 250.626 265.615 256.608 268.655 259.649C269.439 260.433 269.243 261.414 268.066 263.179C267.086 264.847 266.89 265.827 267.478 266.318C268.066 266.612 269.047 265.827 269.636 264.552C270.616 262.297 271.107 262.199 279.639 262.297C284.641 262.297 291.114 261.708 294.056 261.022C302.882 258.864 313.278 253.47 316.711 249.253C319.457 245.722 319.947 245.526 322.791 246.311C326.616 247.39 326.42 247.39 326.42 246.311C326.42 245.82 325.145 244.938 323.674 244.447C321.222 243.663 320.928 243.074 321.32 240.524C321.516 238.955 320.928 236.209 320.045 234.444C319.163 232.777 318.574 231.207 318.77 231.109C318.966 231.011 321.124 229.736 323.576 228.265C329.264 225.029 334.854 218.85 335.737 214.829C337.404 207.376 326.714 204.237 310.728 207.474ZM308.767 232.482C308.767 232.973 308.178 233.463 307.59 233.463C306.903 233.463 304.55 233.757 302.392 234.052C299.744 234.542 298.763 234.346 299.45 233.659C301.313 231.796 308.767 230.815 308.767 232.482ZM315.632 245.232C316.809 245.918 316.711 246.507 314.651 248.664C308.669 255.137 294.546 260.139 282.189 260.335C278.07 260.433 274.343 260.139 273.951 259.747C273.264 259.06 279.051 250.43 281.699 248.272C285.229 245.33 312.003 242.878 315.632 245.232ZM276.403 250.822C276.403 251.901 271.401 257.981 270.42 257.981C268.557 257.981 269.636 254.549 272.284 252.391C274.932 250.136 276.403 249.645 276.403 250.822Z" fill="#79321B" stroke="#79321B"/>
<path d="M373.495 207.473C372.711 208.454 370.455 208.945 366.63 208.945C360.844 208.945 357.803 209.631 357.803 210.808C357.803 211.2 360.451 211.298 363.688 211.102C369.965 210.612 370.847 211.396 367.513 214.437C364.57 217.085 346.525 240.132 339.464 250.135C333.874 258.275 333.579 258.472 328.578 259.452C325.734 259.943 323.478 260.825 323.674 261.414C323.87 261.904 324.164 262.296 324.459 262.198C324.753 262.1 326.616 261.806 328.676 261.414C331.814 260.825 332.304 260.923 332.304 262.493C332.403 264.258 332.403 264.258 333.677 262.591C334.658 261.316 336.424 260.923 341.033 260.923C344.367 260.923 347.015 260.531 347.015 259.943C347.015 259.06 344.073 258.57 338.973 258.668C337.993 258.668 337.208 258.373 337.208 257.981C337.208 256.706 349.369 239.74 358.392 228.461L367.415 217.183L381.537 215.025C402.329 211.887 408.115 211.396 407.723 212.671C407.527 213.358 400.073 222.479 391.148 232.973C375.849 251.116 367.611 262.493 367.611 265.631C367.611 267.887 369.866 266.317 370.651 263.473C371.632 259.943 378.987 250.331 394.777 231.894C401.838 223.754 408.507 215.614 409.684 213.946L411.842 210.906H422.041H432.241L429.887 214.437C426.749 218.948 426.847 220.125 430.083 222.577C431.456 223.754 432.437 224.734 432.241 224.931C432.045 225.029 429.299 226.402 426.258 228.069C408.213 237.288 398.504 252.587 406.644 258.962C410.371 262.002 419.884 261.316 427.435 257.491C433.418 254.549 443.912 247.291 445.971 244.839C448.717 241.505 445.971 242.191 441.46 245.918C430.77 254.647 421.551 258.962 413.705 258.962C408.017 258.962 405.859 257.197 405.859 252.685C405.859 244.055 421.257 230.717 437.145 225.519C445.971 222.675 446.952 221.4 439.694 222.184C434.693 222.773 433.418 222.577 431.358 220.91C429.103 219.046 429.103 218.948 430.672 216.398C431.554 215.025 433.81 213.162 435.477 212.279C438.518 210.71 438.714 210.71 440.283 212.769C442.539 215.515 443.519 215.417 442.735 212.377C442.244 210.514 442.539 209.925 443.617 209.925C444.402 209.925 445.677 211.004 446.265 212.377C447.638 215.417 449.404 215.614 448.423 212.573C447.148 208.16 446.756 208.062 430.181 208.552C418.315 208.847 414.097 208.65 413.607 207.768C413.019 206.885 412.43 206.983 410.959 208.258C409.978 209.141 407.625 209.925 405.761 209.925C403.898 209.925 397.817 210.612 392.325 211.396C383.302 212.671 382.027 212.671 380.654 211.396C379.87 210.612 378.301 209.925 377.222 209.925C375.849 209.925 375.457 209.435 375.751 208.454C376.535 206.493 374.966 205.708 373.495 207.473ZM378.399 212.769C378.399 213.554 371.436 214.927 370.651 214.241C370.553 214.142 370.651 213.554 371.043 212.966C371.828 211.691 378.399 211.494 378.399 212.769Z" fill="#79321B" stroke="#79321B"/>
<path d="M41.027 208.062C31.7101 209.043 15.6261 212.181 11.2128 213.849C5.81877 215.908 9.54555 216.006 18.176 214.045C41.5174 208.553 66.526 208.16 69.6644 213.162C70.0567 213.751 70.6451 213.947 71.0374 213.554C72.8027 211.789 67.7029 208.847 61.5243 207.964C54.365 206.885 52.5996 206.885 41.027 208.062Z" fill="#79321B" stroke="#79321B"/>
<path d="M477.355 209.239C465.978 212.672 455.582 219.537 452.346 225.716C450.483 229.442 450.581 234.738 452.738 237.386C453.719 238.563 457.544 241.603 461.271 244.055C465.095 246.605 468.234 249.351 468.43 250.136C468.626 251.215 466.469 252.391 460.584 254.353C451.267 257.295 448.031 259.257 448.031 261.806C448.031 263.768 450.581 264.847 455.386 264.847C461.663 264.847 472.549 257.687 472.549 253.568C472.549 252.391 476.668 250.724 491.673 245.722C499.421 243.173 502.854 241.309 500.01 241.309C499.225 241.309 492.458 243.369 485.102 245.919L471.666 250.528L469.607 247.978C468.528 246.507 464.997 243.761 461.761 241.799C451.267 235.425 450.09 230.521 457.348 222.773C466.665 212.77 489.418 205.807 495.694 211.005C498.931 213.653 496.479 220.616 490.496 225.519C486.573 228.756 486.672 230.815 490.693 228.167C498.244 223.166 501.579 212.574 496.479 209.337C492.556 206.689 485.691 206.689 477.355 209.239ZM469.116 255.922C468.332 258.472 460.682 262.101 454.798 262.689C449.6 263.179 448.423 261.806 452.15 259.845C455.19 258.178 469.018 253.176 469.411 253.568C469.607 253.764 469.509 254.843 469.116 255.922Z" fill="#79321B" stroke="#79321B"/>
<path d="M27.7873 224.931C17.0974 236.209 16.9012 236.308 10.8207 237.582C7.38812 238.269 4.74014 239.25 4.93629 239.838C5.13244 240.329 5.52473 240.721 5.91702 240.623C6.30931 240.427 8.36885 240.034 10.6245 239.74L14.7436 239.054L9.44765 245.919C3.26905 254.059 0.130707 259.551 1.20951 260.63C1.69988 261.022 2.28832 260.826 2.48446 260.139C3.56327 257.295 12.586 244.546 15.8224 241.505C19.1569 238.269 19.5492 238.171 29.1603 237.681C35.5351 237.288 38.8696 236.798 38.1831 236.111C37.6927 235.621 33.6717 235.327 29.3565 235.523C24.9432 235.719 21.4126 235.719 21.4126 235.327C21.4126 235.033 25.4336 230.521 30.3372 225.323C35.2409 220.125 39.0657 215.32 38.8696 214.731C38.6734 214.045 33.6717 218.752 27.7873 224.931Z" fill="#79321B" stroke="#79321B"/>
<path d="M39.5562 253.078C39.262 253.568 39.6543 254.059 40.4388 254.059C41.3215 254.059 42.008 253.568 42.008 253.078C42.008 252.489 41.6157 252.097 41.1254 252.097C40.5369 252.097 39.8504 252.489 39.5562 253.078Z" fill="#79321B" stroke="#79321B"/>
<path d="M125.86 253.078C125.566 253.568 125.958 254.059 126.743 254.059C127.626 254.059 128.312 253.568 128.312 253.078C128.312 252.489 127.92 252.097 127.43 252.097C126.841 252.097 126.155 252.489 125.86 253.078Z" fill="#79321B" stroke="#79321B"/>
<path d="M53.7769 277.596C53.7769 279.852 61.4266 293.484 68.5859 304.076C88.4947 333.498 112.915 354.485 145.475 370.471C173.524 384.202 202.652 390.184 235.702 389.105C266.105 388.124 289.937 382.142 317.103 368.608C346.329 353.897 373.691 329.183 392.325 300.643C399.288 289.953 405.467 277.89 404.388 276.811C403.604 276.027 403.702 275.831 396.935 287.894C373.691 328.986 338.973 358.899 295.527 375.179C274.245 383.123 254.336 386.555 229.328 386.555C200.298 386.555 178.526 382.24 154.596 371.844C112.719 353.603 79.8643 323.298 59.0728 283.677C55.7383 277.204 53.7769 275.046 53.7769 277.596Z" fill="#79321B" stroke="#79321B"/>
<path d="M241.685 297.014C240.508 298.387 240.115 300.251 240.214 303.193C240.312 305.547 239.919 308.489 239.331 309.666C237.86 312.412 237.86 316.139 239.331 317.61C240.9 319.179 244.333 319.081 245.804 317.61C246.784 316.629 247.471 316.629 249.04 317.61C251.59 319.277 252.865 318.198 250.413 316.433C248.844 315.354 248.844 314.765 249.727 311.921C251.1 307.998 251.1 307.998 250.021 307.998C249.53 307.998 248.844 309.077 248.55 310.45C247.765 313.589 246.784 313.589 244.725 310.156C243.156 307.41 243.156 307.214 245.608 303.977C248.55 299.956 248.452 295.837 245.411 295.445C244.333 295.249 242.665 296.034 241.685 297.014ZM246 298.976C246 299.858 245.117 301.722 244.038 303.095C242.273 305.35 242.077 305.449 241.979 303.585C241.783 300.643 242.175 298.78 243.254 297.505C244.529 295.935 246 296.818 246 298.976ZM244.333 312.804C245.804 315.354 245.804 315.746 244.431 316.237C241.292 317.413 240.115 316.825 240.115 314.079C240.115 309.175 241.881 308.685 244.333 312.804Z" fill="#79321B" stroke="#79321B"/>
<path d="M127.332 296.72C126.547 296.916 124.095 297.407 121.938 297.701C118.309 298.289 118.211 298.485 119.878 299.76C121.447 300.839 121.643 301.918 121.153 306.723C120.859 309.862 120.957 313.981 121.349 315.844L122.134 319.277L122.918 314.177L123.605 309.175L128.214 308.489C135.668 307.508 136.747 305.743 129.587 306.429L123.409 307.018V303.193V299.368L129.98 298.682C134.295 298.191 135.962 297.701 135.079 297.112C133.706 296.328 130.372 296.132 127.332 296.72Z" fill="#79321B" stroke="#79321B"/>
<path d="M154.302 297.407C154.106 298.093 153.713 300.839 153.517 303.389C153.223 306.724 152.144 309.175 150.183 311.725C144.592 318.689 142.141 316.335 141.944 303.781C141.846 296.818 141.846 296.72 140.866 301.133C139.787 306.233 140.473 314.471 142.141 316.433C144.2 318.885 147.633 318.002 150.771 314.177L153.811 310.45V314.079C153.811 316.041 154.302 318.002 154.792 318.296C155.38 318.689 155.773 314.864 155.773 307.606C155.773 297.211 155.38 294.268 154.302 297.407Z" fill="#79321B" stroke="#79321B"/>
<path d="M164.599 297.113C162.246 297.799 162.147 297.995 162.147 307.018C162.147 316.041 162.246 316.335 164.795 317.708C167.247 319.081 167.64 319.081 170.091 317.218C174.21 314.177 176.466 310.647 177.055 306.332C177.447 303.193 177.153 302.016 175.289 299.859C172.739 297.015 168.522 295.936 164.599 297.113ZM172.053 299.957C172.641 300.349 173.622 301.526 174.112 302.605C176.368 307.018 170.974 315.845 166.07 315.845C163.619 315.845 163.619 315.747 163.619 307.509V299.172H167.345C169.307 299.172 171.464 299.565 172.053 299.957Z" fill="#79321B" stroke="#79321B"/>
<path d="M188.235 297.505C186.96 298.093 184.998 299.859 183.92 301.33C181.37 304.762 180.585 313.589 182.449 316.237C184.214 318.492 188.529 318.591 190.981 316.433C193.139 314.471 194.021 314.471 194.021 316.335C194.021 317.119 194.512 317.806 195.002 317.806C195.59 317.806 195.983 315.158 195.983 311.725C195.983 305.449 195.296 304.958 193.531 310.254C192.256 314.177 187.941 316.825 185.489 315.256C184.214 314.373 183.724 312.902 183.92 309.568C184.116 304.076 187.156 299.27 191.177 298.486C192.746 298.191 194.021 297.603 194.021 297.113C194.021 295.838 190.981 296.034 188.235 297.505Z" fill="#79321B" stroke="#79321B"/>
<path d="M204.907 297.407C202.554 297.897 201.082 298.682 201.475 299.172C202.652 300.153 216.676 298.192 215.99 297.113C215.303 296.034 210.497 296.132 204.907 297.407Z" fill="#79321B" stroke="#79321B"/>
<path d="M278.266 297.701C275.422 299.27 274.441 302.409 274.441 310.353C274.441 319.179 276.109 318.493 276.697 309.372C277.286 299.957 278.56 297.799 283.268 298.388C285.229 298.584 285.72 299.172 285.72 301.624C285.72 304.076 285.131 304.861 281.601 306.528C276.795 308.783 276.305 309.96 280.13 309.96C282.091 309.96 283.268 310.745 284.445 312.706C286.308 315.845 290.133 319.473 290.133 318.198C290.133 317.61 288.76 315.354 287.093 313.001L283.954 308.882L286.21 306.528C288.662 303.978 289.054 299.957 287.191 297.701C285.622 295.838 281.601 295.838 278.266 297.701Z" fill="#79321B" stroke="#79321B"/>
<path d="M294.546 304.272C294.154 309.47 294.252 313.785 294.84 315.551C295.723 318.002 295.919 317.512 296.017 311.922C296.115 308.391 296.409 304.37 296.605 302.997C296.802 301.526 296.605 299.369 296.115 298.094C295.429 296.23 295.134 297.603 294.546 304.272Z" fill="#79321B" stroke="#79321B"/>
<path d="M306.217 299.467C303.275 302.213 302.588 303.586 302.196 307.607C301.803 311.824 302 312.903 304.157 315.354C307.296 319.081 312.493 319.277 316.122 315.845C319.064 313.099 318.672 312.02 315.436 314.276C312.493 316.335 307.492 316.237 305.53 314.079C303.667 312.02 303.373 307.214 304.942 303.782C306.217 300.938 310.63 298.192 314.161 298.192C315.632 298.192 316.514 297.799 316.122 297.211C314.847 295.053 309.747 296.23 306.217 299.467Z" fill="#79321B" stroke="#79321B"/>
<path d="M323.282 299.074C322.105 304.076 322.301 317.61 323.478 315.844C323.968 315.06 324.459 313 324.459 311.431C324.459 309.274 324.949 308.391 326.224 308.293C327.107 308.293 329.755 307.901 332.108 307.508L336.228 306.724V311.529C336.228 314.177 336.718 317.021 337.208 317.806C337.895 318.787 338.091 315.452 338.091 307.508C337.993 295.739 337.993 295.641 335.737 303.683C335.541 304.272 333.678 305.154 331.618 305.449C329.559 305.841 327.107 306.331 326.224 306.626C324.851 307.018 324.557 306.233 324.263 301.428C323.968 296.328 323.87 296.034 323.282 299.074Z" fill="#79321B" stroke="#79321B"/>
<path d="M201.965 304.174C200.396 308.784 200.592 317.512 202.259 318.1C203.828 318.689 214.322 316.531 215.401 315.354C216.088 314.57 206.771 315.551 204.319 316.433C203.142 316.924 202.848 316.139 202.848 313.099C202.848 309.372 203.044 309.176 206.575 308.587C211.87 307.607 213.636 307.018 213.636 306.136C213.636 305.645 211.772 305.645 209.517 306.136C203.24 307.312 203.142 307.312 203.632 304.076C204.221 300.251 203.338 300.349 201.965 304.174Z" fill="#79321B" stroke="#79321B"/>
</svg>
