<svg width="72" height="56" viewBox="0 0 72 56" fill="none"
    xmlns="http://www.w3.org/2000/svg">
    <path d="M32.9637 0.712604C28.625 1.33311 25.0276 2.67066 21.4853 5.02859C15.8971 8.73786 11.7505 14.5569 10.1029 21.0515C9.73221 22.4856 9.43015 24.485 9.56745 24.5677C9.73221 24.6781 9.80086 24.485 9.96562 23.4508C10.4874 20.0725 11.7917 16.6528 13.7277 13.4951C17.5722 7.26243 24.2313 2.68444 31.4396 1.31932C33.609 0.905651 37.8516 0.809127 40.1034 1.11249C47.2706 2.1053 53.6002 5.88352 58.035 11.8128C60.2731 14.8051 62.1678 19.1624 62.8131 22.8165C63.1015 24.4436 63.1839 24.6918 63.3624 24.5677C63.4722 24.4988 63.1427 22.3891 62.8406 21.1894C61.9344 17.687 60.2456 14.157 58.1861 11.3992C57.1838 10.0616 54.8084 7.59336 53.4903 6.5316C49.8518 3.59453 45.5543 1.65026 40.7899 0.836706C39.0462 0.533345 34.6937 0.4644 32.9637 0.712604Z" fill="#79321B" stroke="#79321B" stroke-width="0.7"/>
    <path d="M39.4044 3.65777C38.2923 4.61888 37.6607 5.38777 37.1938 6.37635L36.6721 7.47476L35.8208 7.43357C35.148 7.40611 34.9009 7.46103 34.5851 7.69445C33.8162 8.27111 33.5553 9.14985 33.775 10.4268C33.8711 10.9622 33.8574 10.9897 33.3631 11.2506C32.759 11.5801 32.0725 12.4588 32.0725 12.9257C32.0725 13.1316 31.8665 13.4474 31.5095 13.7769C30.9878 14.2849 30.9603 14.3536 30.9878 15.0538C31.0153 15.5481 30.9603 15.8914 30.8093 16.1248C30.6857 16.317 30.5484 16.6603 30.4935 16.8937C30.3287 17.7038 31.2487 21.4796 31.9489 22.8663C32.4981 23.9647 33.6789 24.2805 36.8643 24.1844C39.3769 24.1158 39.9536 23.9922 40.6538 23.3881C41.1893 22.9075 41.766 21.3423 42.2603 19.0081C42.6173 17.2644 42.6035 16.9486 42.1916 16.2209C41.9445 15.7541 41.9033 15.5618 41.9994 15.2049C42.0681 14.9714 42.0818 14.5458 42.0406 14.2712C41.9308 13.7357 41.2717 12.8982 40.8461 12.7609C40.7088 12.706 40.5852 12.5824 40.5852 12.4863C40.5852 11.9645 40.1321 11.1956 39.679 10.9622C39.3632 10.7837 39.2396 10.6327 39.2946 10.4954C39.679 9.53429 39.3495 8.18873 38.6081 7.73564C38.3746 7.5846 37.9353 7.47476 37.6057 7.47476C36.8918 7.47476 36.878 7.37865 37.4273 6.29397C37.8392 5.48388 38.5394 4.63261 39.2534 4.06967C39.4731 3.90491 39.6241 3.72642 39.5966 3.65777C39.5692 3.57539 39.4868 3.58912 39.4044 3.65777ZM36.3014 7.69445C36.4799 7.74937 36.6034 7.88667 36.6034 8.05143C36.6034 8.27111 36.5348 8.31231 36.2602 8.27111C36.068 8.22992 35.9169 8.24365 35.9169 8.29857C35.9169 8.57318 36.933 8.66929 37.29 8.43588C37.4547 8.32604 37.4135 8.29857 37.1252 8.29857C36.5897 8.29857 36.7682 7.80429 37.3449 7.69445C38.4158 7.48849 39.2122 8.25738 39.2122 9.50683C39.2122 10.4542 39.0062 10.8661 38.4021 11.0583C38.1275 11.1545 37.6195 11.4016 37.2762 11.6213C36.5485 12.0606 36.3151 12.0881 35.4913 11.7998C34.4478 11.4291 33.8574 10.6327 33.8574 9.60294C33.8574 8.16127 34.9146 7.32373 36.3014 7.69445ZM40.0635 11.6076C40.2282 11.8135 40.3243 12.198 40.3243 12.651C40.3518 13.5298 39.9811 14.079 38.9788 14.7243C37.4547 15.6992 33.2533 16.5642 32.1411 16.1385C31.9352 16.0561 32.0587 16.0012 32.5942 15.9326C33.9672 15.7541 36.5485 14.6557 37.8529 13.7083C38.7728 13.0355 39.2122 12.3353 39.2122 11.5389C39.2122 10.8799 39.2122 10.8799 39.5142 11.0721C39.679 11.1819 39.9261 11.4291 40.0635 11.6076ZM34.5439 11.5252L34.8597 11.8547L34.1869 12.1568C32.3196 12.9668 32.1549 12.9806 32.4981 12.3215C32.7178 11.8959 33.6652 11.1819 33.9947 11.1819C34.1183 11.1819 34.3654 11.3329 34.5439 11.5252ZM38.9788 11.7037C38.9238 12.9257 37.0291 14.3399 34.1457 15.301C32.8688 15.7266 31.7018 15.8365 31.4134 15.5481C31.3173 15.452 31.2487 15.1499 31.2487 14.8479C31.2487 13.9966 31.7704 13.5847 32.9649 13.4749C34.2418 13.365 35.5188 12.9531 36.5348 12.3353C38.5806 11.0583 39.02 10.9485 38.9788 11.7037ZM36.1915 12.2941C36.1915 12.5961 32.5805 13.5298 32.3608 13.2964C32.3196 13.2414 32.3471 13.1728 32.4157 13.1453C32.4981 13.1179 33.1434 12.8295 33.8574 12.5137C35.0245 11.992 35.2167 11.9371 35.6835 12.0606C35.9581 12.143 36.1915 12.2391 36.1915 12.2941ZM41.5189 13.6534C41.9445 14.2849 41.9308 15.1499 41.4777 15.6854C41.1069 16.1385 40.1184 16.6053 39.2808 16.7426C38.663 16.8388 38.6492 16.8799 39.8026 16.0287C40.6127 15.452 41.0383 14.6282 40.9696 13.7907C40.9285 13.008 41.052 12.9668 41.5189 13.6534ZM40.8598 13.9005C40.8598 14.8067 39.9673 15.8365 38.4982 16.6053C37.7293 17.0172 37.3723 17.1134 36.4387 17.182C35.1206 17.2781 33.1434 17.0447 32.3883 16.7015L31.8665 16.4818L33.4455 16.3857C36.7819 16.2072 39.6515 15.0676 40.4067 13.6122C40.5715 13.2964 40.6401 13.2414 40.7362 13.3925C40.8049 13.5023 40.8598 13.722 40.8598 13.9005ZM42.1504 16.5642C42.4937 17.4017 42.3701 18.1019 41.8209 18.3903C41.2442 18.6923 39.2259 19.0081 37.29 19.1042C34.5714 19.2278 31.3036 18.7747 30.878 18.2118C30.6308 17.9097 30.6583 16.8799 30.9191 16.3719L31.1388 15.96L31.537 16.3719C32.1823 17.031 32.9924 17.2507 35.1618 17.3193C37.8117 17.4154 40.3381 16.9211 41.2992 16.1248C41.7248 15.7678 41.8484 15.8365 42.1504 16.5642ZM31.9214 18.9257C32.196 19.0493 32.3059 19.269 32.4844 20.1065C32.608 20.6695 32.8551 21.6718 33.0336 22.3308C33.2121 22.9899 33.3219 23.5666 33.2807 23.6077C33.1297 23.7588 32.4707 23.3469 32.2235 22.935C31.8665 22.3583 30.9741 19.5299 30.9741 19.0081C30.9741 18.6237 31.0153 18.5825 31.2899 18.6649C31.4546 18.7198 31.743 18.8296 31.9214 18.9257ZM42.0955 18.7198C42.0955 18.9944 41.409 21.4658 41.1344 22.1935C40.8461 22.9624 40.2145 23.6764 39.8163 23.6764C39.5692 23.6764 39.5692 23.5803 39.8438 22.8389C40.0223 22.3171 40.5028 20.4773 40.7774 19.269C40.8323 19.0219 40.9834 18.8708 41.2992 18.7747C41.8896 18.5825 42.0955 18.5688 42.0955 18.7198ZM33.9535 19.2278C34.2968 19.2965 34.2968 19.3102 34.5439 21.6718C34.6263 22.4956 34.7361 23.3469 34.7773 23.5666C34.846 23.9235 34.8185 23.951 34.4478 23.951C34.2281 23.951 33.9398 23.8686 33.8162 23.7725C33.5828 23.594 32.4157 19.3514 32.553 19.1454C32.6217 19.0356 33.1846 19.063 33.9535 19.2278ZM40.5028 19.5161C40.393 20.1615 39.3907 23.6764 39.2946 23.7725C39.2671 23.8137 38.9788 23.8686 38.663 23.9098C38.1412 23.9785 38.0863 23.9647 38.155 23.7313C38.2648 23.3743 38.6492 20.5871 38.6904 19.8319L38.7316 19.2141L39.3495 19.1317C40.6401 18.9532 40.6127 18.9532 40.5028 19.5161ZM36.3288 21.6855V24.0883H35.711C35.1892 24.0883 35.0931 24.0471 35.0245 23.7725C34.9009 23.237 34.5439 20.2438 34.5439 19.7496V19.2827H35.4364H36.3288V21.6855ZM38.4433 20.2713C38.3609 21.356 37.9902 23.8137 37.8803 23.9785C37.8529 24.0471 37.5508 24.0883 37.2076 24.0883H36.6034V21.6855V19.2827H37.5646H38.5257L38.4433 20.2713Z" fill="#79321B" stroke="#79321B" stroke-width="0.7"/>
    <path d="M17.9029 29.426C16.9555 29.8654 13.9761 31.7739 12.5893 32.8311C11.7381 33.4764 11.6831 33.4901 10.2552 33.6686C8.56639 33.8746 8.04464 34.1766 9.63734 34.0256C10.2003 33.9844 10.7769 33.902 10.928 33.8746C11.1065 33.8334 10.9692 33.9981 10.5847 34.3277C9.36274 35.3574 8.86845 35.8655 8.96456 35.9616C9.01948 36.0165 9.33528 35.8105 9.65107 35.5222C9.9806 35.2201 10.5847 34.7121 11.0104 34.3963L11.793 33.8059L13.6603 33.8471L15.5276 33.8883L15.0333 34.5748C14.4429 35.3986 14.0173 36.2087 14.0173 36.497C14.0173 36.8403 14.2507 36.7305 14.3468 36.3185C14.388 36.1126 14.7724 35.4673 15.1981 34.8631L15.967 33.7785L17.6695 33.8746C18.7542 33.9432 19.372 33.9295 19.372 33.8471C19.372 33.7647 18.7679 33.6686 18.0402 33.6137C17.2988 33.5725 16.5848 33.5176 16.4475 33.5039C16.2553 33.4764 16.3926 33.243 17.0791 32.378C18.7954 30.1949 19.372 29.4123 19.372 29.2063C19.372 28.9042 18.8366 28.9729 17.9029 29.426ZM18.7267 29.7967C18.507 30.085 17.7519 31.0462 17.0516 31.9249L15.7885 33.545H13.9761C12.9875 33.545 12.2323 33.4901 12.3147 33.4352C13.2072 32.6526 16.6397 30.3734 17.7931 29.783C19.0288 29.1514 19.221 29.1514 18.7267 29.7967Z" fill="#79321B" stroke="#79321B" stroke-width="0.7"/>
    <path d="M26.0043 29.344C24.5214 29.8246 22.7228 31.0054 22.1736 31.8292C21.7617 32.4745 22.0774 32.3235 22.915 31.4997C24.3704 30.0855 26.5672 29.193 28.3247 29.3166C29.2309 29.3852 29.5192 29.6324 29.5329 30.3601C29.5329 31.28 28.4757 32.6118 27.24 33.2434C26.0317 33.875 24.0821 34.1633 23.9448 33.7377C23.9173 33.669 24.4802 32.9825 25.1942 32.2411C25.9082 31.4859 26.4711 30.8406 26.4436 30.8132C26.3201 30.6896 25.661 31.2525 24.6725 32.3509C23.8075 33.2983 23.5603 33.4906 23.2994 33.4494C22.9013 33.367 22.7365 33.5867 22.9562 33.9299C23.0798 34.1359 23.0111 34.3144 22.4894 35.0558C21.7342 36.1542 21.4321 36.7446 21.4321 37.1153C21.4321 37.3625 21.693 37.5272 21.7205 37.2801C21.7754 36.7583 21.9539 36.3602 22.6129 35.3716C23.1072 34.6576 23.4779 34.232 23.629 34.232C23.78 34.232 24.0271 34.4929 24.2468 34.8773C24.7136 35.7011 25.2491 36.2778 25.661 36.4425C26.0592 36.5936 27.0203 36.3739 27.954 35.9071C29.1897 35.2892 30.7275 34.0947 30.2744 34.0947C30.2332 34.0947 29.8075 34.3693 29.3407 34.7125C28.2286 35.4952 26.8281 36.1542 26.1965 36.1817C25.867 36.1954 25.5786 36.0993 25.4002 35.9345C25.0844 35.6599 24.3155 34.534 24.3155 34.3418C24.3155 34.2869 24.5214 34.232 24.7686 34.232C25.9906 34.232 27.7068 33.4494 28.7366 32.4333C29.8899 31.2937 30.1508 30.0168 29.3819 29.3715C29.0112 29.0557 28.8464 29.0145 27.9814 29.0145C27.3361 29.0282 26.6496 29.1381 26.0043 29.344Z" fill="#79321B" stroke="#79321B" stroke-width="0.7"/>
    <path d="M44.3631 29.2205C43.2784 29.4402 42.6056 29.6736 41.5347 30.2228C40.5735 30.7034 39.0632 31.8155 38.8573 32.1862C38.6788 32.5432 38.8573 32.5158 39.2692 32.1176C40.0106 31.4311 41.6994 30.3739 42.7017 29.9894C45.2555 29.0146 47.8643 29.1656 47.5897 30.2777C47.4524 30.8132 46.656 31.5684 45.7636 32.0215C45.1045 32.351 44.8711 32.4059 44.2532 32.351C43.3745 32.2549 42.2624 32.6256 42.331 32.9826C42.3997 33.3121 43.0724 33.3258 44.0747 33.0101C45.0633 32.708 45.4066 32.7766 45.5439 33.3258C45.7361 34.1085 45.6949 34.1222 43.5393 34.1634C42.4408 34.1771 41.3836 34.2458 41.1777 34.3007C40.9443 34.3556 40.7932 34.3419 40.7932 34.2732C40.7932 34.0947 44.0198 30.7995 44.6377 30.3464C44.8986 30.1542 45.0633 29.9482 45.0084 29.8933C44.7887 29.6736 42.7017 31.5821 41.109 33.4494C40.5323 34.1222 39.887 34.7263 39.6536 34.8362C38.6239 35.2618 38.0472 36.0993 38.4728 36.525C38.5827 36.6348 38.5552 36.7721 38.3904 37.0193C38.2531 37.2527 38.2257 37.39 38.3081 37.4586C38.3904 37.4998 38.5277 37.39 38.6101 37.2115C38.7474 36.8957 38.8161 36.882 40.0106 36.8957C40.7108 36.8957 41.617 36.8133 42.0289 36.7172C43.2647 36.4151 44.7201 35.66 45.2006 35.0696C45.5851 34.5753 45.6537 34.5478 46.0519 34.6577C46.5874 34.8087 46.5599 34.8087 46.5599 34.6577C46.5599 34.589 46.3814 34.4655 46.1755 34.3968C45.8322 34.287 45.791 34.2046 45.8459 33.8476C45.8734 33.6279 45.791 33.2435 45.6674 32.9963C45.5439 32.7629 45.4615 32.5432 45.4889 32.5295C45.5164 32.5158 45.8185 32.3373 46.1617 32.1313C46.9581 31.6782 47.7407 30.8132 47.8643 30.2503C48.0977 29.2068 46.6011 28.7674 44.3631 29.2205ZM44.0885 32.7217C44.0885 32.7904 44.0061 32.859 43.9237 32.859C43.8276 32.859 43.4981 32.9002 43.196 32.9414C42.8253 33.0101 42.688 32.9826 42.7841 32.8865C43.045 32.6256 44.0885 32.4883 44.0885 32.7217ZM45.0496 34.5066C45.2143 34.6028 45.2006 34.6851 44.9123 34.9872C44.0747 35.8934 42.0976 36.5936 40.3676 36.6211C39.7909 36.6348 39.2692 36.5936 39.2143 36.5387C39.1181 36.4426 39.9282 35.2343 40.2989 34.9323C40.7932 34.5204 44.5416 34.1771 45.0496 34.5066ZM39.5575 35.2893C39.5575 35.4403 38.8573 36.2916 38.72 36.2916C38.4591 36.2916 38.6101 35.811 38.9808 35.509C39.3516 35.1932 39.5575 35.1245 39.5575 35.2893Z" fill="#79321B" stroke="#79321B" stroke-width="0.7"/>
    <path d="M53.1485 29.2182C53.0386 29.3555 52.7228 29.4242 52.1874 29.4242C51.3773 29.4242 50.9516 29.5203 50.9516 29.685C50.9516 29.74 51.3224 29.7537 51.7755 29.7262C52.6542 29.6576 52.7778 29.7674 52.3109 30.1931C51.899 30.5638 49.3727 33.7904 48.3841 35.1908C47.6015 36.3304 47.5603 36.3579 46.86 36.4952C46.4619 36.5639 46.1461 36.6874 46.1735 36.7698C46.201 36.8385 46.2422 36.8934 46.2834 36.8797C46.3246 36.8659 46.5854 36.8247 46.8738 36.7698C47.3131 36.6874 47.3818 36.7012 47.3818 36.9208C47.3955 37.168 47.3955 37.168 47.574 36.9346C47.7113 36.7561 47.9585 36.7012 48.6038 36.7012C49.0706 36.7012 49.4413 36.6462 49.4413 36.5639C49.4413 36.4403 49.0294 36.3716 48.3155 36.3854C48.1781 36.3854 48.0683 36.3442 48.0683 36.2893C48.0683 36.1108 49.7709 33.7354 51.034 32.1565L52.2972 30.5775L54.2744 30.2754C57.1852 29.8361 57.9952 29.7674 57.9403 29.9459C57.9129 30.042 56.8694 31.3189 55.6199 32.7881C53.478 35.3281 52.3247 36.9208 52.3247 37.3602C52.3247 37.676 52.6405 37.4563 52.7503 37.0582C52.8876 36.5639 53.9174 35.2183 56.1279 32.637C57.1165 31.4974 58.0502 30.3578 58.2149 30.1244L58.517 29.6988H59.9449H61.3729L61.0433 30.1931C60.604 30.8246 60.6177 30.9894 61.0708 31.3327C61.263 31.4974 61.4003 31.6347 61.3729 31.6622C61.3454 31.6759 60.961 31.8681 60.5353 32.1016C58.009 33.3922 56.6497 35.5341 57.7893 36.4266C58.311 36.8522 59.6429 36.7561 60.7001 36.2206C61.5376 35.8087 63.0068 34.7927 63.2951 34.4494C63.6795 33.9826 63.2951 34.0787 62.6635 34.6004C61.1669 35.8224 59.8763 36.4266 58.7779 36.4266C57.9815 36.4266 57.6794 36.1794 57.6794 35.5478C57.6794 34.3396 59.8351 32.4723 62.0594 31.7446C63.2951 31.3464 63.4324 31.1679 62.4164 31.2777C61.7161 31.3601 61.5376 31.3327 61.2493 31.0992C60.9335 30.8384 60.9335 30.8246 61.1532 30.4677C61.2768 30.2754 61.5925 30.0146 61.826 29.891C62.2516 29.6713 62.2791 29.6713 62.4987 29.9596C62.8145 30.3441 62.9518 30.3304 62.842 29.9047C62.7733 29.6438 62.8145 29.5615 62.9656 29.5615C63.0754 29.5615 63.2539 29.7125 63.3363 29.9047C63.5285 30.3304 63.7756 30.3578 63.6383 29.9322C63.4599 29.3143 63.4049 29.3006 61.0845 29.3692C59.4232 29.4104 58.8328 29.383 58.7641 29.2594C58.6817 29.1358 58.5994 29.1496 58.3934 29.3281C58.2561 29.4516 57.9266 29.5615 57.6657 29.5615C57.4048 29.5615 56.5536 29.6576 55.7847 29.7674C54.5215 29.9459 54.343 29.9459 54.1508 29.7674C54.0409 29.6576 53.8213 29.5615 53.6702 29.5615C53.478 29.5615 53.4231 29.4928 53.4643 29.3555C53.5741 29.0809 53.3544 28.9711 53.1485 29.2182ZM53.835 29.9596C53.835 30.0695 52.8601 30.2617 52.7503 30.1656C52.7366 30.1519 52.7503 30.0695 52.8052 29.9871C52.9151 29.8086 53.835 29.7811 53.835 29.9596Z" fill="#79321B" stroke="#79321B" stroke-width="0.7"/>
    <path d="M6.60268 29.3012C5.29831 29.4385 3.04656 29.8779 2.4287 30.1113C1.67354 30.3996 2.19528 30.4134 3.40354 30.1388C6.67133 29.3699 10.1725 29.315 10.6119 30.0152C10.6668 30.0976 10.7492 30.125 10.8041 30.0701C11.0513 29.823 10.3373 29.4111 9.47229 29.2875C8.46998 29.1365 8.22284 29.1365 6.60268 29.3012Z" fill="#79321B" stroke="#79321B" stroke-width="0.7"/>
    <path d="M67.6893 29.4669C66.0966 29.9475 64.6412 30.9086 64.1881 31.7736C63.9272 32.2954 63.941 33.0368 64.243 33.4075C64.3803 33.5723 64.9158 33.9979 65.4376 34.3412C65.973 34.6981 66.4124 35.0826 66.4399 35.1924C66.4673 35.3435 66.1653 35.5082 65.3414 35.7828C64.0371 36.1947 63.584 36.4693 63.584 36.8263C63.584 37.1009 63.941 37.252 64.6137 37.252C65.4925 37.252 67.0165 36.2496 67.0165 35.673C67.0165 35.5082 67.5932 35.2748 69.6939 34.5746C70.7786 34.2176 71.2592 33.9567 70.861 33.9567C70.7511 33.9567 69.8038 34.245 68.774 34.602L66.893 35.2473L66.6046 34.8904C66.4536 34.6844 65.9593 34.3 65.5062 34.0254C64.0371 33.1329 63.8723 32.4464 64.8884 31.3617C66.1927 29.9612 69.3781 28.9864 70.2569 29.7141C70.71 30.0848 70.3667 31.0596 69.5292 31.7461C68.98 32.1992 68.9937 32.4876 69.5566 32.1169C70.6138 31.4166 71.0807 29.9338 70.3667 29.4807C69.8175 29.1099 68.8564 29.1099 67.6893 29.4669ZM66.536 36.0025C66.4261 36.3595 65.3552 36.8675 64.5314 36.9499C63.8037 37.0185 63.6389 36.8263 64.1607 36.5517C64.5863 36.3183 66.5222 35.6181 66.5772 35.673C66.6046 35.7004 66.5909 35.8515 66.536 36.0025Z" fill="#79321B" stroke="#79321B" stroke-width="0.7"/>
    <path d="M4.75021 31.6632C3.25362 33.2422 3.22616 33.2559 2.37489 33.4344C1.89433 33.5305 1.52362 33.6678 1.55108 33.7502C1.57854 33.8188 1.63346 33.8737 1.68838 33.86C1.7433 33.8326 2.03164 33.7776 2.34743 33.7364L2.9241 33.6403L2.18267 34.6014C1.31767 35.7411 0.878299 36.5099 1.02933 36.661C1.09798 36.7159 1.18036 36.6884 1.20782 36.5923C1.35886 36.1941 2.62203 34.4092 3.07513 33.9836C3.54196 33.5305 3.59688 33.5168 4.94244 33.4481C5.8349 33.3932 6.30172 33.3245 6.20561 33.2284C6.13696 33.1598 5.57402 33.1186 4.9699 33.146C4.35204 33.1735 3.85775 33.1735 3.85775 33.1186C3.85775 33.0774 4.42069 32.4458 5.1072 31.7181C5.79371 30.9904 6.32918 30.3176 6.30172 30.2352C6.27426 30.1391 5.57402 30.7982 4.75021 31.6632Z" fill="#79321B" stroke="#79321B" stroke-width="0.7"/>
    <path d="M6.39698 35.6039C6.35579 35.6726 6.41071 35.7412 6.52055 35.7412C6.64412 35.7412 6.74023 35.6726 6.74023 35.6039C6.74023 35.5215 6.68531 35.4666 6.61666 35.4666C6.53428 35.4666 6.43817 35.5215 6.39698 35.6039Z" fill="#79321B" stroke="#79321B" stroke-width="0.7"/>
    <path d="M18.4805 35.6039C18.4393 35.6726 18.4942 35.7412 18.604 35.7412C18.7276 35.7412 18.8237 35.6726 18.8237 35.6039C18.8237 35.5215 18.7688 35.4666 18.7002 35.4666C18.6178 35.4666 18.5217 35.5215 18.4805 35.6039Z" fill="#79321B" stroke="#79321B" stroke-width="0.7"/>
    <path d="M11.8872 39.3285C11.8872 39.6443 12.9582 41.5528 13.9605 43.0357C16.7477 47.1547 20.1665 50.093 24.7249 52.331C28.6518 54.2533 32.7296 55.0908 37.3567 54.9398C41.6131 54.8025 44.9495 53.9649 48.7528 52.0702C52.8444 50.0106 56.6751 46.5506 59.2839 42.5551C60.2587 41.0585 61.1237 39.3697 60.9727 39.2187C60.8628 39.1089 60.8766 39.0814 59.9292 40.7702C56.6751 46.5232 51.8146 50.7109 45.7321 52.9901C42.7527 54.1022 39.9655 54.5828 36.4643 54.5828C32.4001 54.5828 29.352 53.9787 26.0019 52.5233C20.1391 49.9694 15.5394 45.7268 12.6286 40.1798C12.1618 39.2736 11.8872 38.9716 11.8872 39.3285Z" fill="#79321B" stroke="#79321B" stroke-width="0.7"/>
    <path d="M38.1964 42.0473C38.0316 42.2396 37.9767 42.5004 37.9904 42.9123C38.0042 43.2419 37.9492 43.6538 37.8669 43.8185C37.6609 44.203 37.6609 44.7247 37.8669 44.9307C38.0866 45.1504 38.5671 45.1366 38.7731 44.9307C38.9104 44.7934 39.0065 44.7934 39.2262 44.9307C39.5831 45.1641 39.7616 45.0131 39.4184 44.7659C39.1987 44.6149 39.1987 44.5325 39.3223 44.1343C39.5145 43.5851 39.5145 43.5851 39.3635 43.5851C39.2948 43.5851 39.1987 43.7361 39.1575 43.9284C39.0477 44.3677 38.9104 44.3677 38.622 43.8872C38.4023 43.5027 38.4023 43.4753 38.7456 43.0222C39.1575 42.4592 39.1438 41.8826 38.7181 41.8277C38.5671 41.8002 38.3337 41.91 38.1964 42.0473ZM38.8005 42.3219C38.8005 42.4455 38.6769 42.7064 38.5259 42.8986C38.2788 43.2144 38.2513 43.2281 38.2376 42.9673C38.2101 42.5554 38.265 42.2945 38.4161 42.116C38.5946 41.8963 38.8005 42.0199 38.8005 42.3219ZM38.5671 44.2579C38.7731 44.6149 38.7731 44.6698 38.5808 44.7385C38.1415 44.9032 37.9767 44.8208 37.9767 44.4364C37.9767 43.7499 38.2239 43.6812 38.5671 44.2579Z" fill="#79321B" stroke="#79321B" stroke-width="0.7"/>
    <path d="M22.1862 42.0066C22.0764 42.0341 21.7332 42.1027 21.4311 42.1439C20.9231 42.2263 20.9093 42.2537 21.1428 42.4322C21.3624 42.5833 21.3899 42.7343 21.3212 43.4071C21.2801 43.8465 21.2938 44.4231 21.3487 44.684L21.4585 45.1646L21.5684 44.4506L21.6645 43.7503L22.3098 43.6542C23.3533 43.5169 23.5043 43.2698 22.502 43.3659L21.637 43.4483V42.9128V42.3773L22.557 42.2812C23.1611 42.2126 23.3945 42.1439 23.2709 42.0615C23.0787 41.9517 22.6119 41.9242 22.1862 42.0066Z" fill="#79321B" stroke="#79321B" stroke-width="0.7"/>
    <path d="M25.9635 42.1014C25.9361 42.1975 25.8811 42.582 25.8537 42.939C25.8125 43.4058 25.6615 43.749 25.3869 44.106C24.6042 45.0809 24.261 44.7513 24.2335 42.9939C24.2198 42.019 24.2198 42.0053 24.0825 42.6232C23.9315 43.3371 24.0276 44.4905 24.261 44.7651C24.5493 45.1083 25.0299 44.9848 25.4692 44.4493L25.8949 43.9275V44.4355C25.8949 44.7101 25.9635 44.9848 26.0322 45.0259C26.1146 45.0809 26.1695 44.5454 26.1695 43.5294C26.1695 42.074 26.1146 41.662 25.9635 42.1014Z" fill="#79321B" stroke="#79321B" stroke-width="0.7"/>
    <path d="M27.4043 42.0607C27.0748 42.1568 27.061 42.1842 27.061 43.4474C27.061 44.7106 27.0748 44.7518 27.4318 44.944C27.775 45.1362 27.8299 45.1362 28.1732 44.8754C28.7498 44.4497 29.0656 43.9554 29.148 43.3513C29.2029 42.9119 29.1618 42.7472 28.9009 42.4451C28.5439 42.0469 27.9535 41.8959 27.4043 42.0607ZM28.4478 42.4588C28.5302 42.5138 28.6675 42.6785 28.7361 42.8296C29.0519 43.4474 28.2968 44.6831 27.6102 44.6831C27.267 44.6831 27.267 44.6694 27.267 43.5161V42.349H27.7887C28.0633 42.349 28.3654 42.4039 28.4478 42.4588Z" fill="#79321B" stroke="#79321B" stroke-width="0.7"/>
    <path d="M30.7135 42.1162C30.535 42.1986 30.2604 42.4457 30.1093 42.6517C29.7523 43.1323 29.6425 44.368 29.9034 44.7387C30.1505 45.0545 30.7546 45.0682 31.0979 44.7662C31.4 44.4915 31.5235 44.4915 31.5235 44.7524C31.5235 44.8623 31.5922 44.9584 31.6608 44.9584C31.7432 44.9584 31.7981 44.5877 31.7981 44.1071C31.7981 43.2284 31.702 43.1597 31.4549 43.9011C31.2764 44.4504 30.6723 44.8211 30.329 44.6014C30.1505 44.4778 30.0819 44.2719 30.1093 43.805C30.1368 43.0361 30.5624 42.3634 31.1254 42.2535C31.345 42.2123 31.5235 42.13 31.5235 42.0613C31.5235 41.8828 31.0979 41.9103 30.7135 42.1162Z" fill="#79321B" stroke="#79321B" stroke-width="0.7"/>
    <path d="M33.0475 42.1032C32.718 42.1719 32.512 42.2817 32.5669 42.3504C32.7317 42.4877 34.6951 42.2131 34.599 42.062C34.5029 41.911 33.8301 41.9247 33.0475 42.1032Z" fill="#79321B" stroke="#79321B" stroke-width="0.7"/>
    <path d="M43.3177 42.1445C42.9195 42.3642 42.7822 42.8035 42.7822 43.9157C42.7822 45.1514 43.0156 45.0553 43.098 43.7784C43.1804 42.4603 43.3589 42.1582 44.0179 42.2406C44.2925 42.2681 44.3612 42.3504 44.3612 42.6937C44.3612 43.037 44.2788 43.1468 43.7845 43.3802C43.1118 43.696 43.0431 43.8608 43.5786 43.8608C43.8532 43.8608 44.0179 43.9706 44.1827 44.2452C44.4436 44.6846 44.9791 45.1926 44.9791 45.0141C44.9791 44.9317 44.7868 44.6159 44.5534 44.2864L44.1141 43.7097L44.4298 43.3802C44.7731 43.0232 44.828 42.4603 44.5672 42.1445C44.3475 41.8836 43.7845 41.8836 43.3177 42.1445Z" fill="#79321B" stroke="#79321B" stroke-width="0.7"/>
    <path d="M45.5959 43.0633C45.541 43.791 45.5548 44.3952 45.6371 44.6423C45.7607 44.9856 45.7882 44.9169 45.8019 44.1343C45.8156 43.64 45.8568 43.0771 45.8843 42.8848C45.9117 42.6789 45.8843 42.3768 45.8156 42.1983C45.7195 41.9375 45.6783 42.1297 45.5959 43.0633Z" fill="#79321B" stroke="#79321B" stroke-width="0.7"/>
    <path d="M47.2312 42.3915C46.8193 42.776 46.7232 42.9682 46.6683 43.5311C46.6133 44.1215 46.6408 44.2725 46.9429 44.6158C47.3822 45.1375 48.1099 45.165 48.618 44.6845C49.0299 44.3 48.9749 44.149 48.5218 44.4648C48.1099 44.7531 47.4097 44.7394 47.1351 44.4373C46.8742 44.149 46.833 43.4762 47.0527 42.9956C47.2312 42.5975 47.8491 42.213 48.3433 42.213C48.5493 42.213 48.6729 42.1581 48.618 42.0757C48.4395 41.7737 47.7255 41.9384 47.2312 42.3915Z" fill="#79321B" stroke="#79321B" stroke-width="0.7"/>
    <path d="M49.6195 42.3366C49.4547 43.0369 49.4822 44.9316 49.6469 44.6845C49.7156 44.5746 49.7842 44.2863 49.7842 44.0666C49.7842 43.7646 49.8529 43.641 50.0314 43.6272C50.155 43.6272 50.5257 43.5723 50.8552 43.5174L51.4319 43.4076V44.0803C51.4319 44.4511 51.5005 44.8492 51.5692 44.9591C51.6653 45.0964 51.6927 44.6296 51.6927 43.5174C51.679 41.8698 51.679 41.8561 51.3632 42.9819C51.3358 43.0643 51.0749 43.1879 50.7866 43.2291C50.4982 43.284 50.155 43.3526 50.0314 43.3938C49.8392 43.4488 49.798 43.3389 49.7568 42.6661C49.7156 41.9522 49.7019 41.911 49.6195 42.3366Z" fill="#79321B" stroke="#79321B" stroke-width="0.7"/>
    <path d="M32.6356 43.049C32.416 43.6944 32.4434 44.9164 32.6768 44.9987C32.8965 45.0811 34.3656 44.779 34.5167 44.6143C34.6128 44.5044 33.3084 44.6417 32.9652 44.7653C32.8004 44.834 32.7592 44.7241 32.7592 44.2985C32.7592 43.7767 32.7867 43.7493 33.281 43.6669C34.0224 43.5296 34.2695 43.4472 34.2695 43.3236C34.2695 43.255 34.0087 43.255 33.6929 43.3236C32.8141 43.4884 32.8004 43.4884 32.8691 43.0353C32.9514 42.4998 32.8279 42.5136 32.6356 43.049Z" fill="#79321B" stroke="#79321B" stroke-width="0.7"/>
</svg>
