<svg width="222" height="173" viewBox="0 0 222 173" fill="none" xmlns="http://www.w3.org/2000/svg">
<path d="M101.457 1.47482C87.8207 3.42499 76.5149 7.62868 65.3818 15.0393C47.8189 26.697 34.7871 44.9852 29.6088 65.3969C28.4437 69.904 27.4944 76.1878 27.9259 76.4478C28.4437 76.7945 28.6595 76.1878 29.1773 72.9376C30.8171 62.32 34.9165 51.5724 41.0009 41.6482C53.0835 22.0599 74.0121 7.67201 96.6669 3.38165C103.485 2.08154 116.819 1.77818 123.896 2.7316C146.421 5.85186 166.314 17.7262 180.252 36.3611C187.286 45.7652 193.241 59.4597 195.269 70.944C196.175 76.0578 196.434 76.8379 196.995 76.4478C197.34 76.2312 196.305 69.6006 195.355 65.8303C192.507 54.8227 187.2 43.7284 180.727 35.061C177.577 30.8573 170.111 23.1 165.969 19.763C154.534 10.5323 141.027 4.42174 126.053 1.86485C120.573 0.911438 106.894 0.694756 101.457 1.47482Z" fill="#79321B" stroke="#79321B" stroke-width="2"/>
<path d="M121.7 10.7312C118.204 13.7519 116.22 16.1684 114.752 19.2753L113.113 22.7275L110.437 22.598C108.323 22.5117 107.546 22.6843 106.553 23.4179C104.137 25.2303 103.317 27.992 104.008 32.0051C104.31 33.688 104.266 33.7743 102.713 34.5942C100.814 35.6299 98.6567 38.3916 98.6567 39.8587C98.6567 40.506 98.0094 41.4985 96.8875 42.5342C95.2477 44.1308 95.1614 44.3465 95.2477 46.5473C95.334 48.1008 95.1614 49.1796 94.6867 49.9131C94.2984 50.5173 93.8668 51.5961 93.6942 52.3296C93.1764 54.8756 96.0676 66.7424 98.2683 71.1007C99.9944 74.5529 103.705 75.5454 113.717 75.2433C121.613 75.0275 123.426 74.6392 125.627 72.7405C127.31 71.2302 129.122 66.3109 130.675 58.975C131.797 53.4947 131.754 52.5022 130.46 50.2152C129.683 48.748 129.553 48.1439 129.856 47.022C130.071 46.2884 130.114 44.9507 129.985 44.0876C129.64 42.4047 127.568 39.7724 126.231 39.3409C125.799 39.1683 125.411 38.7799 125.411 38.4779C125.411 36.8381 123.987 34.4216 122.563 33.688C121.57 33.1271 121.182 32.6524 121.355 32.2209C122.563 29.2002 121.527 24.9713 119.197 23.5473C118.463 23.0727 117.083 22.7275 116.047 22.7275C113.803 22.7275 113.76 22.4254 115.486 19.0164C116.78 16.4704 118.981 13.795 121.225 12.0258C121.916 11.508 122.39 10.947 122.304 10.7312C122.218 10.4723 121.959 10.5155 121.7 10.7312ZM111.947 23.4179C112.508 23.5905 112.897 24.022 112.897 24.5398C112.897 25.2303 112.681 25.3597 111.818 25.2303C111.214 25.1008 110.739 25.144 110.739 25.3166C110.739 26.1796 113.932 26.4817 115.054 25.7481C115.572 25.4029 115.443 25.3166 114.537 25.3166C112.854 25.3166 113.415 23.7631 115.227 23.4179C118.593 22.7706 121.096 25.1871 121.096 29.1139C121.096 32.0914 120.448 33.386 118.55 33.9901C117.687 34.2922 116.09 35.0689 115.011 35.7593C112.724 37.1402 111.991 37.2265 109.402 36.3203C106.122 35.1552 104.266 32.6524 104.266 29.416C104.266 24.885 107.589 22.2528 111.947 23.4179ZM123.771 35.7162C124.289 36.3634 124.591 37.5717 124.591 38.9957C124.677 41.7574 123.512 43.4835 120.362 45.5116C115.572 48.5754 102.368 51.294 98.8725 49.9563C98.2252 49.6974 98.6135 49.5248 100.296 49.309C104.612 48.748 112.724 45.2959 116.824 42.3184C119.715 40.204 121.096 38.0032 121.096 35.5004C121.096 33.4291 121.096 33.4291 122.045 34.0332C122.563 34.3785 123.34 35.1552 123.771 35.7162ZM106.424 35.4573L107.417 36.4929L105.302 37.4422C99.4334 39.9882 98.9156 40.0314 99.9944 37.9601C100.685 36.6224 103.662 34.3785 104.698 34.3785C105.086 34.3785 105.863 34.8531 106.424 35.4573ZM120.362 36.0182C120.189 39.8587 114.235 44.3034 105.173 47.324C101.16 48.6617 97.4916 49.0069 96.5854 48.1008C96.2833 47.7987 96.0676 46.8494 96.0676 45.9C96.0676 43.2246 97.7073 41.93 101.462 41.5848C105.475 41.2396 109.488 39.9451 112.681 38.0032C119.111 33.9901 120.492 33.6449 120.362 36.0182ZM111.602 37.8738C111.602 38.8231 100.253 41.7574 99.5629 41.0238C99.4334 40.8512 99.5197 40.6355 99.7355 40.5492C99.9944 40.4629 102.023 39.5567 104.266 38.5642C107.934 36.9244 108.538 36.7518 110.006 37.1402C110.869 37.3991 111.602 37.7012 111.602 37.8738ZM128.345 42.1458C129.683 44.1308 129.64 46.8494 128.216 48.5323C127.051 49.9563 123.944 51.4235 121.311 51.855C119.37 52.157 119.326 52.2865 122.951 49.6111C125.497 47.7987 126.835 45.2096 126.619 42.5773C126.49 40.1177 126.878 39.9882 128.345 42.1458ZM126.274 42.9225C126.274 45.7706 123.469 49.0069 118.852 51.4235C116.435 52.718 115.313 53.0201 112.379 53.2358C108.236 53.5379 102.023 52.8043 99.6492 51.7255L98.0094 51.0351L102.972 50.733C113.458 50.172 122.477 46.5904 124.85 42.0163C125.368 41.0238 125.583 40.8512 125.886 41.3259C126.101 41.6711 126.274 42.3616 126.274 42.9225ZM130.33 51.294C131.409 53.9263 131.021 56.127 129.295 57.0332C127.482 57.9825 121.139 58.975 115.054 59.2771C106.51 59.6655 96.2402 58.2414 94.9025 56.4722C94.1257 55.5229 94.212 52.2865 95.0319 50.6899L95.7224 49.3953L96.9738 50.6899C99.0019 52.7612 101.548 53.4516 108.366 53.6674C116.694 53.9694 124.634 52.4159 127.655 49.9131C128.992 48.7912 129.381 49.0069 130.33 51.294ZM98.182 58.7161C99.0451 59.1045 99.3903 59.7949 99.9512 62.4272C100.34 64.1964 101.116 67.3465 101.677 69.4178C102.238 71.4891 102.584 73.3015 102.454 73.4309C101.979 73.9056 99.9081 72.611 99.1314 71.3165C98.0094 69.5041 95.2045 60.6148 95.2045 58.975C95.2045 57.7668 95.334 57.6373 96.197 57.8962C96.7149 58.0688 97.621 58.4141 98.182 58.7161ZM130.158 58.0688C130.158 58.9319 128 66.6992 127.137 68.9863C126.231 71.4028 124.246 73.6467 122.994 73.6467C122.218 73.6467 122.218 73.3446 123.081 71.0144C123.642 69.3746 125.152 63.5923 126.015 59.7949C126.188 59.0182 126.662 58.5435 127.655 58.2414C129.51 57.6373 130.158 57.5942 130.158 58.0688ZM104.568 59.6655C105.647 59.8812 105.647 59.9244 106.424 67.3465C106.683 69.9356 107.028 72.611 107.158 73.3015C107.373 74.4234 107.287 74.5097 106.122 74.5097C105.432 74.5097 104.525 74.2508 104.137 73.9487C103.403 73.3878 99.7355 60.0538 100.167 59.4066C100.383 59.0613 102.152 59.1476 104.568 59.6655ZM125.152 60.5717C124.807 62.5998 121.657 73.6467 121.355 73.9487C121.268 74.0782 120.362 74.2508 119.37 74.3803C117.73 74.596 117.557 74.5529 117.773 73.8193C118.118 72.6973 119.326 63.9375 119.456 61.5641L119.585 59.6223L121.527 59.3634C125.583 58.8024 125.497 58.8024 125.152 60.5717ZM112.034 67.3896V74.9412H110.092C108.452 74.9412 108.15 74.8118 107.934 73.9487C107.546 72.2658 106.424 62.8587 106.424 61.3052V59.8381H109.229H112.034V67.3896ZM118.679 62.945C118.42 66.354 117.255 74.0782 116.91 74.596C116.824 74.8118 115.874 74.9412 114.795 74.9412H112.897V67.3896V59.8381H115.917H118.938L118.679 62.945Z" fill="#79321B" stroke="#79321B" stroke-width="2"/>
<path d="M54.123 91.7143C51.1455 93.0952 41.7816 99.0933 37.4232 102.416C34.7478 104.444 34.5752 104.487 30.0874 105.048C24.7797 105.696 23.14 106.645 28.1456 106.17C29.9148 106.041 31.7272 105.782 32.2019 105.696C32.7628 105.566 32.3313 106.084 31.1231 107.12C27.2825 110.356 25.7291 111.953 26.0311 112.255C26.2037 112.427 27.1962 111.78 28.1887 110.874C29.2244 109.924 31.1231 108.328 32.4608 107.335L34.9204 105.48L40.7891 105.609L46.6577 105.739L45.1043 107.896C43.2487 110.485 41.911 113.031 41.911 113.938C41.911 115.016 42.6446 114.671 42.9467 113.377C43.0761 112.729 44.2844 110.701 45.6221 108.802L48.0386 105.393L53.3894 105.696C56.7984 105.911 58.7403 105.868 58.7403 105.609C58.7403 105.35 56.8416 105.048 54.5545 104.876C52.2243 104.746 49.9804 104.574 49.5489 104.53C48.9448 104.444 49.3763 103.711 51.5339 100.992C56.9279 94.1308 58.7403 91.6712 58.7403 91.0239C58.7403 90.0746 57.0573 90.2903 54.123 91.7143ZM56.7121 92.8794C56.0217 93.7856 53.6483 96.8062 51.4476 99.568L47.4776 104.66H41.7816C38.6746 104.66 36.3013 104.487 36.5602 104.315C39.3651 101.855 50.153 94.6918 53.7778 92.8363C57.6615 90.8513 58.2656 90.8513 56.7121 92.8794Z" fill="#79321B" stroke="#79321B" stroke-width="2"/>
<path d="M79.5834 91.4606C74.923 92.9709 69.2701 96.682 67.5441 99.2711C66.2495 101.299 67.242 100.825 69.8743 98.2354C74.4484 93.7908 81.3527 90.9859 86.8761 91.3743C89.7241 91.5901 90.6303 92.3668 90.6735 94.6538C90.6735 97.545 87.3508 101.731 83.4671 103.716C79.6697 105.701 73.5422 106.607 73.1107 105.269C73.0244 105.053 74.7936 102.896 77.0375 100.566C79.2814 98.1923 81.0506 96.1642 80.9643 96.0779C80.5759 95.6895 78.5046 97.4587 75.3977 100.911C72.6791 103.888 71.9024 104.492 71.0825 104.363C69.8311 104.104 69.3133 104.795 70.0037 105.873C70.3921 106.521 70.1763 107.082 68.5366 109.412C66.1632 112.864 65.2139 114.719 65.2139 115.885C65.2139 116.661 66.0338 117.179 66.1201 116.402C66.2927 114.763 66.8536 113.511 68.9249 110.404C70.4784 108.16 71.6435 106.823 72.1182 106.823C72.5928 106.823 73.3696 107.643 74.06 108.851C75.5272 111.44 77.2101 113.252 78.5046 113.77C79.7561 114.245 82.7767 113.554 85.711 112.087C89.5947 110.145 94.4277 106.391 93.0037 106.391C92.8742 106.391 91.5365 107.254 90.0693 108.333C86.574 110.793 82.1726 112.864 80.1876 112.95C79.1519 112.993 78.2457 112.691 77.6848 112.174C76.6923 111.31 74.2758 107.772 74.2758 107.168C74.2758 106.995 74.923 106.823 75.6998 106.823C79.5403 106.823 84.9343 104.363 88.1707 101.17C91.7954 97.5882 92.6153 93.575 90.1988 91.5469C89.0337 90.5544 88.5159 90.425 85.7973 90.425C83.7692 90.4681 81.6116 90.8133 79.5834 91.4606Z" fill="#79321B" stroke="#79321B" stroke-width="2"/>
<path d="M137.282 91.071C133.873 91.7614 131.758 92.495 128.392 94.221C125.372 95.7314 120.625 99.2267 119.978 100.392C119.417 101.514 119.978 101.427 121.272 100.176C123.602 98.0184 128.91 94.6957 132.06 93.4875C140.086 90.4237 148.285 90.8983 147.422 94.3936C146.991 96.0766 144.488 98.4499 141.683 99.8739C139.612 100.91 138.878 101.082 136.936 100.91C134.175 100.608 130.679 101.773 130.895 102.895C131.111 103.93 133.225 103.973 136.375 102.981C139.482 102.032 140.561 102.247 140.993 103.973C141.597 106.433 141.467 106.476 134.692 106.606C131.24 106.649 127.918 106.865 127.27 107.037C126.537 107.21 126.062 107.167 126.062 106.951C126.062 106.39 136.203 96.0334 138.145 94.6094C138.964 94.0053 139.482 93.358 139.31 93.1854C138.619 92.495 132.06 98.4931 127.055 104.362C125.242 106.476 123.214 108.375 122.48 108.72C119.244 110.058 117.432 112.69 118.769 114.028C119.115 114.373 119.028 114.804 118.511 115.581C118.079 116.315 117.993 116.746 118.252 116.962C118.511 117.092 118.942 116.746 119.201 116.185C119.632 115.193 119.848 115.15 123.602 115.193C125.803 115.193 128.651 114.934 129.946 114.632C133.829 113.683 138.404 111.309 139.914 109.454C141.122 107.9 141.338 107.814 142.589 108.159C144.272 108.634 144.186 108.634 144.186 108.159C144.186 107.943 143.625 107.555 142.978 107.339C141.899 106.994 141.769 106.735 141.942 105.613C142.028 104.923 141.769 103.714 141.381 102.938C140.993 102.204 140.734 101.514 140.82 101.471C140.906 101.427 141.856 100.866 142.934 100.219C145.437 98.7951 147.897 96.0766 148.285 94.3073C149.019 91.0278 144.315 89.6469 137.282 91.071ZM136.419 102.075C136.419 102.29 136.16 102.506 135.901 102.506C135.599 102.506 134.563 102.636 133.614 102.765C132.449 102.981 132.017 102.895 132.319 102.593C133.139 101.773 136.419 101.341 136.419 102.075ZM139.439 107.684C139.957 107.986 139.914 108.245 139.008 109.195C136.375 112.043 130.162 114.244 124.724 114.33C122.912 114.373 121.272 114.244 121.1 114.071C120.798 113.769 123.344 109.971 124.509 109.022C126.062 107.728 137.843 106.649 139.439 107.684ZM122.178 110.144C122.178 110.619 119.978 113.294 119.546 113.294C118.726 113.294 119.201 111.784 120.366 110.835C121.531 109.842 122.178 109.626 122.178 110.144Z" fill="#79321B" stroke="#79321B" stroke-width="2"/>
<path d="M164.894 91.0668C164.549 91.4983 163.556 91.714 161.874 91.714C159.328 91.714 157.99 92.0161 157.99 92.5339C157.99 92.7065 159.155 92.7497 160.579 92.6634C163.341 92.4476 163.729 92.7928 162.262 94.1305C160.967 95.2956 153.027 105.436 149.92 109.838C147.461 113.419 147.331 113.506 145.131 113.937C143.879 114.153 142.887 114.541 142.973 114.8C143.059 115.016 143.189 115.189 143.318 115.146C143.448 115.102 144.268 114.973 145.174 114.8C146.555 114.541 146.77 114.585 146.77 115.275C146.814 116.052 146.814 116.052 147.374 115.318C147.806 114.757 148.583 114.585 150.611 114.585C152.078 114.585 153.243 114.412 153.243 114.153C153.243 113.765 151.949 113.549 149.705 113.592C149.273 113.592 148.928 113.463 148.928 113.29C148.928 112.729 154.279 105.264 158.249 100.301L162.219 95.3388L168.433 94.3894C177.581 93.0086 180.127 92.7928 179.954 93.3538C179.868 93.6559 176.588 97.669 172.662 102.286C165.93 110.269 162.305 115.275 162.305 116.656C162.305 117.648 163.298 116.958 163.643 115.706C164.074 114.153 167.311 109.924 174.258 101.812C177.365 98.23 180.299 94.6484 180.817 93.9148L181.767 92.5771H186.254H190.742L189.707 94.1305C188.326 96.1155 188.369 96.6333 189.793 97.7121C190.397 98.23 190.828 98.6615 190.742 98.7478C190.656 98.7909 189.448 99.3951 188.11 100.129C180.17 104.185 175.898 110.917 179.48 113.721C181.119 115.059 185.305 114.757 188.628 113.074C191.26 111.78 195.877 108.586 196.783 107.508C197.992 106.04 196.783 106.343 194.798 107.982C190.095 111.823 186.039 113.721 182.586 113.721C180.084 113.721 179.134 112.945 179.134 110.96C179.134 107.162 185.909 101.294 192.9 99.0067C196.783 97.7553 197.215 97.1943 194.022 97.5395C191.821 97.7984 191.26 97.7121 190.354 96.9786C189.361 96.1587 189.361 96.1155 190.052 94.9936C190.44 94.3894 191.433 93.5696 192.166 93.1812C193.504 92.4908 193.59 92.4908 194.281 93.397C195.273 94.6052 195.705 94.5621 195.359 93.2243C195.144 92.4045 195.273 92.1455 195.748 92.1455C196.093 92.1455 196.654 92.6202 196.913 93.2243C197.517 94.5621 198.294 94.6484 197.862 93.3107C197.301 91.3688 197.129 91.3257 189.836 91.5414C184.615 91.6709 182.759 91.5846 182.543 91.1962C182.284 90.8078 182.025 90.851 181.378 91.412C180.947 91.8003 179.911 92.1455 179.091 92.1455C178.271 92.1455 175.596 92.4476 173.179 92.7928C169.209 93.3538 168.648 93.3538 168.044 92.7928C167.699 92.4476 167.009 92.1455 166.534 92.1455C165.93 92.1455 165.757 91.9298 165.887 91.4983C166.232 90.6352 165.541 90.29 164.894 91.0668ZM167.052 93.397C167.052 93.7422 163.988 94.3463 163.643 94.0442C163.6 94.0011 163.643 93.7422 163.815 93.4833C164.161 92.9223 167.052 92.836 167.052 93.397Z" fill="#79321B" stroke="#79321B" stroke-width="2"/>
<path d="M18.6079 91.3247C14.5084 91.7562 7.43153 93.137 5.4897 93.8706C3.11634 94.7768 4.75611 94.82 8.55348 93.9569C18.8236 91.5404 29.8274 91.3678 31.2082 93.5686C31.3808 93.8275 31.6397 93.9138 31.8124 93.7412C32.5891 92.9644 30.3452 91.6699 27.6266 91.2815C24.4765 90.8068 23.6998 90.8068 18.6079 91.3247Z" fill="#79321B" stroke="#79321B" stroke-width="2"/>
<path d="M210.596 91.8454C205.59 93.3557 201.016 96.3763 199.592 99.0949C198.772 100.735 198.815 103.065 199.765 104.23C200.196 104.748 201.879 106.086 203.519 107.164C205.202 108.286 206.583 109.495 206.669 109.84C206.755 110.314 205.806 110.832 203.217 111.695C199.117 112.99 197.693 113.853 197.693 114.975C197.693 115.838 198.815 116.312 200.93 116.312C203.691 116.312 208.481 113.162 208.481 111.35C208.481 110.832 210.294 110.099 216.896 107.898C220.305 106.776 221.815 105.956 220.564 105.956C220.219 105.956 217.241 106.862 214.005 107.984L208.093 110.012L207.187 108.89C206.712 108.243 205.159 107.035 203.735 106.172C199.117 103.367 198.6 101.209 201.793 97.8003C205.892 93.3989 215.903 90.3351 218.665 92.6221C220.089 93.7872 219.01 96.851 216.378 99.0086C214.652 100.433 214.695 101.339 216.464 100.174C219.787 97.9729 221.254 93.3125 219.01 91.8885C217.284 90.7234 214.264 90.7234 210.596 91.8454ZM206.971 112.386C206.626 113.508 203.26 115.104 200.671 115.363C198.384 115.579 197.866 114.975 199.506 114.112C200.843 113.378 206.928 111.177 207.1 111.35C207.187 111.436 207.144 111.911 206.971 112.386Z" fill="#79321B" stroke="#79321B" stroke-width="2"/>
<path d="M12.7863 98.7492C8.08279 103.712 7.99648 103.755 5.32107 104.316C3.81075 104.618 2.64565 105.049 2.73196 105.308C2.81826 105.524 2.99087 105.697 3.16347 105.653C3.33608 105.567 4.24227 105.395 5.23476 105.265L7.04714 104.963L4.71694 107.984C1.99837 111.565 0.617514 113.982 1.09218 114.456C1.30794 114.629 1.56685 114.543 1.65316 114.241C2.12783 112.989 6.0978 107.38 7.52181 106.042C8.98898 104.618 9.16158 104.575 13.3905 104.359C16.1953 104.186 17.6625 103.971 17.3604 103.668C17.1447 103.453 15.3755 103.323 13.4768 103.41C11.5349 103.496 9.98147 103.496 9.98147 103.323C9.98147 103.194 11.7507 101.209 13.9083 98.9218C16.0659 96.6347 17.7488 94.5203 17.6625 94.2614C17.5762 93.9593 15.3755 96.0306 12.7863 98.7492Z" fill="#79321B" stroke="#79321B" stroke-width="2"/>
<path d="M17.9614 111.132C17.832 111.348 18.0046 111.564 18.3498 111.564C18.7382 111.564 19.0402 111.348 19.0402 111.132C19.0402 110.874 18.8676 110.701 18.6519 110.701C18.393 110.701 18.0909 110.874 17.9614 111.132Z" fill="#79321B" stroke="#79321B" stroke-width="2"/>
<path d="M55.939 111.132C55.8095 111.348 55.9821 111.564 56.3273 111.564C56.7157 111.564 57.0178 111.348 57.0178 111.132C57.0178 110.874 56.8452 110.701 56.6294 110.701C56.3705 110.701 56.0684 110.874 55.939 111.132Z" fill="#79321B" stroke="#79321B" stroke-width="2"/>
<path d="M35.2173 122.839C35.2173 123.832 38.5831 129.83 41.7332 134.49C50.4931 147.436 61.2379 156.67 75.5643 163.704C87.9058 169.745 100.722 172.377 115.264 171.903C128.641 171.471 139.127 168.839 151.08 162.884C163.939 156.411 175.979 145.537 184.178 132.98C187.241 128.276 189.96 122.969 189.485 122.494C189.14 122.149 189.183 122.062 186.206 127.37C175.979 145.451 160.703 158.612 141.587 165.775C132.223 169.271 123.463 170.781 112.459 170.781C99.6862 170.781 90.1065 168.882 79.5774 164.308C61.1516 156.282 46.6957 142.948 37.5475 125.515C36.0803 122.666 35.2173 121.717 35.2173 122.839Z" fill="#79321B" stroke="#79321B" stroke-width="2"/>
<path d="M117.902 131.386C117.384 131.99 117.212 132.81 117.255 134.105C117.298 135.14 117.125 136.435 116.866 136.953C116.219 138.161 116.219 139.801 116.866 140.448C117.557 141.138 119.067 141.095 119.714 140.448C120.146 140.016 120.448 140.016 121.138 140.448C122.26 141.182 122.821 140.707 121.742 139.93C121.052 139.455 121.052 139.197 121.44 137.945C122.045 136.219 122.045 136.219 121.57 136.219C121.354 136.219 121.052 136.694 120.923 137.298C120.577 138.679 120.146 138.679 119.24 137.168C118.549 135.96 118.549 135.874 119.628 134.45C120.923 132.681 120.879 130.868 119.542 130.696C119.067 130.609 118.333 130.955 117.902 131.386ZM119.801 132.249C119.801 132.637 119.412 133.457 118.938 134.061C118.161 135.054 118.075 135.097 118.031 134.277C117.945 132.983 118.118 132.163 118.592 131.602C119.153 130.911 119.801 131.3 119.801 132.249ZM119.067 138.333C119.714 139.455 119.714 139.628 119.11 139.844C117.729 140.362 117.212 140.103 117.212 138.894C117.212 136.737 117.988 136.521 119.067 138.333Z" fill="#79321B" stroke="#79321B" stroke-width="2"/>
<path d="M67.5865 131.257C67.2413 131.343 66.1625 131.559 65.2132 131.688C63.6165 131.947 63.5734 132.033 64.307 132.594C64.9974 133.069 65.0837 133.544 64.868 135.658C64.7385 137.039 64.7816 138.851 64.9543 139.671L65.2995 141.182L65.6447 138.938L65.9467 136.737L67.9749 136.435C71.2544 136.003 71.7291 135.227 68.579 135.529L65.8604 135.788V134.105V132.422L68.7516 132.12C70.6503 131.904 71.3839 131.688 70.9955 131.429C70.3914 131.084 68.9242 130.998 67.5865 131.257Z" fill="#79321B" stroke="#79321B" stroke-width="2"/>
<path d="M79.4543 131.553C79.368 131.855 79.1954 133.064 79.1091 134.186C78.9797 135.653 78.505 136.732 77.642 137.854C75.1823 140.917 74.1035 139.882 74.0172 134.358C73.9741 131.294 73.9741 131.251 73.5425 133.193C73.0679 135.437 73.3699 139.062 74.1035 139.925C75.0097 141.004 76.52 140.615 77.9009 138.932L79.2386 137.293V138.889C79.2386 139.752 79.4543 140.615 79.6701 140.745C79.929 140.917 80.1016 139.234 80.1016 136.041C80.1016 131.467 79.929 130.173 79.4543 131.553Z" fill="#79321B" stroke="#79321B" stroke-width="2"/>
<path d="M83.9836 131.426C82.9479 131.728 82.9048 131.815 82.9048 135.785C82.9048 139.755 82.9479 139.884 84.0699 140.488C85.1487 141.092 85.3213 141.092 86.4001 140.273C88.2125 138.935 89.205 137.381 89.4639 135.483C89.6365 134.102 89.507 133.584 88.6871 132.635C87.5652 131.383 85.7097 130.909 83.9836 131.426ZM87.2631 132.678C87.522 132.85 87.9536 133.368 88.1693 133.843C89.1618 135.785 86.7885 139.668 84.6309 139.668C83.5521 139.668 83.5521 139.625 83.5521 136V132.333H85.1918C86.0549 132.333 87.0042 132.505 87.2631 132.678Z" fill="#79321B" stroke="#79321B" stroke-width="2"/>
<path d="M94.3835 131.601C93.8225 131.86 92.9595 132.637 92.4848 133.284C91.3629 134.794 91.0177 138.678 91.8376 139.843C92.6143 140.836 94.513 140.879 95.5918 139.929C96.5411 139.066 96.9295 139.066 96.9295 139.886C96.9295 140.231 97.1452 140.534 97.361 140.534C97.6199 140.534 97.7925 139.368 97.7925 137.858C97.7925 135.096 97.4905 134.881 96.7137 137.211C96.1527 138.937 94.2541 140.102 93.1753 139.412C92.6143 139.023 92.3985 138.376 92.4848 136.909C92.5711 134.492 93.9088 132.378 95.6781 132.033C96.3685 131.903 96.9295 131.644 96.9295 131.428C96.9295 130.867 95.5918 130.954 94.3835 131.601Z" fill="#79321B" stroke="#79321B" stroke-width="2"/>
<path d="M101.721 131.558C100.685 131.773 100.038 132.119 100.21 132.334C100.728 132.766 106.899 131.903 106.597 131.428C106.295 130.953 104.18 130.997 101.721 131.558Z" fill="#79321B" stroke="#79321B" stroke-width="2"/>
<path d="M133.997 131.686C132.746 132.377 132.314 133.758 132.314 137.253C132.314 141.137 133.048 140.835 133.307 136.821C133.566 132.679 134.127 131.729 136.198 131.988C137.061 132.075 137.277 132.334 137.277 133.412C137.277 134.491 137.018 134.836 135.465 135.57C133.35 136.562 133.134 137.08 134.817 137.08C135.68 137.08 136.198 137.426 136.716 138.289C137.536 139.669 139.219 141.266 139.219 140.705C139.219 140.446 138.615 139.454 137.881 138.418L136.5 136.606L137.493 135.57C138.571 134.448 138.744 132.679 137.924 131.686C137.234 130.866 135.465 130.866 133.997 131.686Z" fill="#79321B" stroke="#79321B" stroke-width="2"/>
<path d="M141.159 134.576C140.986 136.863 141.029 138.762 141.288 139.539C141.677 140.617 141.763 140.402 141.806 137.942C141.849 136.388 141.979 134.619 142.065 134.015C142.151 133.368 142.065 132.418 141.849 131.857C141.547 131.038 141.418 131.642 141.159 134.576Z" fill="#79321B" stroke="#79321B" stroke-width="2"/>
<path d="M146.295 132.466C145.001 133.674 144.699 134.278 144.526 136.048C144.354 137.903 144.44 138.378 145.389 139.457C146.77 141.096 149.057 141.183 150.654 139.672C151.948 138.464 151.776 137.989 150.352 138.982C149.057 139.888 146.856 139.845 145.993 138.896C145.173 137.989 145.044 135.875 145.734 134.365C146.295 133.113 148.237 131.905 149.791 131.905C150.438 131.905 150.826 131.732 150.654 131.474C150.093 130.524 147.849 131.042 146.295 132.466Z" fill="#79321B" stroke="#79321B" stroke-width="2"/>
<path d="M153.804 132.291C153.287 134.491 153.373 140.446 153.891 139.67C154.107 139.324 154.322 138.418 154.322 137.728C154.322 136.778 154.538 136.39 155.099 136.347C155.487 136.347 156.652 136.174 157.688 136.002L159.5 135.656V137.771C159.5 138.936 159.716 140.187 159.932 140.533C160.234 140.964 160.32 139.497 160.32 136.002C160.277 130.823 160.277 130.78 159.285 134.319C159.198 134.578 158.379 134.966 157.472 135.095C156.566 135.268 155.487 135.484 155.099 135.613C154.495 135.786 154.365 135.441 154.236 133.326C154.107 131.082 154.063 130.953 153.804 132.291Z" fill="#79321B" stroke="#79321B" stroke-width="2"/>
<path d="M100.426 134.534C99.736 136.562 99.8223 140.402 100.556 140.661C101.246 140.92 105.864 139.971 106.338 139.453C106.64 139.108 102.541 139.539 101.462 139.928C100.944 140.143 100.815 139.798 100.815 138.46C100.815 136.821 100.901 136.734 102.455 136.475C104.785 136.044 105.562 135.785 105.562 135.397C105.562 135.181 104.742 135.181 103.749 135.397C100.987 135.914 100.944 135.914 101.16 134.49C101.419 132.808 101.031 132.851 100.426 134.534Z" fill="#79321B" stroke="#79321B" stroke-width="2"/>
</svg>
